<svg width="600" height="456" viewBox="0 0 600 456" fill="none" xmlns="http://www.w3.org/2000/svg">
<g clip-path="url(#clip0_782_8204)">
<path d="M546.8 145.6H461.4V203.8H546.8V145.6Z" fill="#9EC0FF"/>
<path d="M537.5 216.6L531.7 212.6L525.9 216.6V195.6H537.5V216.6Z" fill="#5181DB"/>
<path d="M531.7 203.2C536.395 203.2 540.2 199.394 540.2 194.7C540.2 190.006 536.395 186.2 531.7 186.2C527.006 186.2 523.2 190.006 523.2 194.7C523.2 199.394 527.006 203.2 531.7 203.2Z" fill="#5181DB"/>
<path d="M540.051 194.769C540.803 190.135 537.656 185.769 533.022 185.017C528.388 184.265 524.022 187.411 523.27 192.045C522.518 196.679 525.665 201.045 530.299 201.797C534.932 202.549 539.299 199.402 540.051 194.769Z" fill="white"/>
<path d="M537.7 193.4C537.7 196.7 535 199.4 531.7 199.4C528.4 199.4 525.7 196.7 525.7 193.4C525.7 190.1 528.4 187.4 531.7 187.4C535 187.4 537.7 190.1 537.7 193.4Z" stroke="#9EC0FF" stroke-width="0.7631" stroke-miterlimit="10"/>
<path d="M468.301 165.7H537.701" stroke="#89A4D9" stroke-miterlimit="10"/>
<path d="M487.101 160.3H518.901" stroke="#89A4D9" stroke-miterlimit="10"/>
<path d="M468.301 171.1H537.701" stroke="#89A4D9" stroke-miterlimit="10"/>
<path d="M468.301 176.5H537.701" stroke="#89A4D9" stroke-miterlimit="10"/>
<path d="M468.301 181.9H537.701" stroke="#89A4D9" stroke-miterlimit="10"/>
<path d="M488.101 187.2H517.901" stroke="#89A4D9" stroke-miterlimit="10"/>
<path d="M509.7 238.9H495.9V305.5H509.7V238.9Z" fill="#2E6ADB"/>
<path d="M492.9 251.2H479.1V305.5H492.9V251.2Z" fill="#9EC0FF"/>
<path d="M476 243.9H462.2V305.5H476V243.9Z" fill="#89A4D9"/>
<path d="M459.2 271.5H445.4V305.5H459.2V271.5Z" fill="#5181DB"/>
<path d="M442.4 287.4H428.6V305.5H442.4V287.4Z" fill="white"/>
<path d="M517.2 309H425.5V236.7" stroke="white" stroke-width="1.1497" stroke-miterlimit="10"/>
<path d="M502.2 41.7001C476.5 41.7001 455.7 62.5001 455.7 88.2001C455.7 113.9 476.5 134.7 502.2 134.7C527.9 134.7 548.7 113.9 548.7 88.2001C548.7 62.5001 527.9 41.7001 502.2 41.7001ZM502.2 126.9C480.8 126.9 463.4 109.5 463.4 88.1001C463.4 66.7001 480.8 49.3001 502.2 49.3001C523.6 49.3001 541 66.8001 541 88.2001C541 109.6 523.6 126.9 502.2 126.9Z" fill="#9EC0FF"/>
<path d="M503.8 54.3C503.8 55.3 503 56.2 501.9 56.2C500.8 56.2 500 55.4 500 54.3C500 53.2 500.8 52.4 501.9 52.4C503 52.4 503.8 53.2 503.8 54.3Z" fill="#9EC0FF"/>
<path d="M503.8 122.1C503.8 123.1 503 124 501.9 124C500.8 124 500 123.2 500 122.1C500 121.1 500.8 120.2 501.9 120.2C503 120.2 503.8 121.1 503.8 122.1Z" fill="#9EC0FF"/>
<path d="M486.7 58.0001C487.2 58.9001 486.9 60.1001 486 60.6001C485.1 61.1001 483.9 60.8001 483.4 59.9001C482.9 59.0001 483.2 57.8001 484.1 57.3001C485 56.7001 486.2 57.1001 486.7 58.0001Z" fill="#9EC0FF"/>
<path d="M520.6 116.7C521.1 117.6 520.8 118.8 519.9 119.3C519 119.8 517.8 119.5 517.3 118.6C516.8 117.7 517.1 116.5 518 116C518.9 115.5 520.1 115.8 520.6 116.7Z" fill="#9EC0FF"/>
<path d="M473.7 69.7C474.6 70.2 474.9 71.4 474.4 72.3C473.9 73.2 472.7 73.5 471.8 73C470.9 72.5 470.6 71.3 471.1 70.4C471.6 69.5 472.8 69.2 473.7 69.7Z" fill="#9EC0FF"/>
<path d="M532.4 103.6C533.3 104.1 533.6 105.3 533.1 106.2C532.6 107.1 531.4 107.4 530.5 106.9C529.6 106.4 529.3 105.2 529.8 104.3C530.4 103.4 531.5 103.1 532.4 103.6Z" fill="#9EC0FF"/>
<path d="M468.3 86.4C469.3 86.4 470.2 87.2 470.2 88.3C470.2 89.3 469.4 90.2 468.3 90.2C467.2 90.2 466.4 89.4 466.4 88.3C466.4 87.3 467.3 86.4 468.3 86.4Z" fill="#9EC0FF"/>
<path d="M536.1 86.4C537.1 86.4 538 87.2 538 88.3C538 89.3 537.2 90.2 536.1 90.2C535.1 90.2 534.2 89.4 534.2 88.3C534.2 87.3 535.1 86.4 536.1 86.4Z" fill="#9EC0FF"/>
<path d="M472 103.6C472.9 103.1 474.1 103.4 474.6 104.3C475.1 105.2 474.8 106.4 473.9 106.9C473 107.4 471.8 107.1 471.3 106.2C470.8 105.3 471.1 104.1 472 103.6Z" fill="#9EC0FF"/>
<path d="M530.701 69.7C531.601 69.2 532.801 69.5 533.301 70.4C533.801 71.3 533.501 72.5 532.601 73C531.701 73.5 530.501 73.2 530.001 72.3C529.501 71.3 529.801 70.2 530.701 69.7Z" fill="#9EC0FF"/>
<path d="M483.8 116.6C484.3 115.7 485.5 115.4 486.4 115.9C487.3 116.4 487.6 117.6 487.1 118.5C486.6 119.4 485.4 119.7 484.5 119.2C483.6 118.6 483.2 117.5 483.8 116.6Z" fill="#9EC0FF"/>
<path d="M517.701 57.8C518.201 56.9 519.401 56.6 520.301 57.1C521.201 57.6 521.501 58.8 521.001 59.7C520.501 60.6 519.301 60.9 518.401 60.4C517.501 59.9 517.201 58.7 517.701 57.8Z" fill="#9EC0FF"/>
<path d="M502.2 58.8V88.2L485 99.2" stroke="white" stroke-miterlimit="10"/>
<path d="M502.2 91.4001C503.967 91.4001 505.4 89.9674 505.4 88.2001C505.4 86.4328 503.967 85.0001 502.2 85.0001C500.433 85.0001 499 86.4328 499 88.2001C499 89.9674 500.433 91.4001 502.2 91.4001Z" fill="#9EC0FF"/>
<path d="M473.5 83.1H396.2V176.6H473.5V83.1Z" fill="white"/>
<path d="M407 95.1H430.4" stroke="#B8D0FF" stroke-miterlimit="10"/>
<path d="M407 101.7H462.7" stroke="#B8D0FF" stroke-miterlimit="10"/>
<path d="M407 108.4H462.7" stroke="#B8D0FF" stroke-miterlimit="10"/>
<path d="M407 115H462.7" stroke="#B8D0FF" stroke-miterlimit="10"/>
<path d="M407 121.7H462.7" stroke="#B8D0FF" stroke-miterlimit="10"/>
<path d="M407 128.4H462.7" stroke="#B8D0FF" stroke-miterlimit="10"/>
<path d="M407 135H462.7" stroke="#B8D0FF" stroke-miterlimit="10"/>
<path d="M407 141.7H462.7" stroke="#B8D0FF" stroke-miterlimit="10"/>
<path d="M407 148.3H462.7" stroke="#B8D0FF" stroke-miterlimit="10"/>
<path d="M407 155H462.7" stroke="#B8D0FF" stroke-miterlimit="10"/>
<path d="M407 161.6H430.4" stroke="#B8D0FF" stroke-miterlimit="10"/>
<path d="M455.9 78.5V101.5C455.9 104.4 453.6 106.7 450.7 106.7C447.8 106.7 445.5 104.4 445.5 101.5V77.5C445.5 73.1 449.1 69.6 453.4 69.6C457.8 69.6 461.3 73.2 461.3 77.5V83" stroke="#2E6ADB" stroke-width="2" stroke-miterlimit="10"/>
<path d="M196.2 56L218.7 58.2C220.1 43.6 213.5 28.7 200.2 20.4L188.2 39.5C193.9 43.2 196.8 49.7 196.2 56Z" fill="#9EC0FF"/>
<path d="M193.6 63.6C188.5 71.8 177.7 74.2 169.6 69.1C167.7 67.9 166.1 66.3 164.8 64.6L146.6 77.9C149.5 81.9 153.2 85.4 157.6 88.2C176.3 100 201 94.3 212.7 75.6C216.1 70.2 218 64.3 218.6 58.3L196.2 56C195.9 58.6 195.1 61.2 193.6 63.6Z" fill="#2E6ADB"/>
<path d="M146.5 77.9L164.7 64.6C163.2 62.5 162.1 60 161.7 57.5L139.5 61.6C140.6 67.4 143 73 146.5 77.9Z" fill="#5181DB"/>
<path d="M164.1 45C167.9 38.9 174.9 36 181.5 37.1L185 14.8C169.7 12.4 153.7 19.1 145 33C139.4 41.8 137.8 52 139.5 61.5L161.7 57.4C160.9 53.3 161.7 48.9 164.1 45Z" fill="#89A4D9"/>
<path d="M181.5 37.0999C183.8 37.4999 186 38.2999 188.1 39.5999L200.1 20.4999C195.3 17.4999 190.2 15.6999 185 14.7999L181.5 37.0999Z" fill="white"/>
<path d="M168.5 205.1H82.2002V319.1H168.5V205.1Z" fill="white"/>
<path d="M96.5002 306.9C92.9002 298.8 88.0002 291.1 82.2002 284.1V319.1H156.4C141.4 306.9 120.4 300.8 96.5002 306.9Z" fill="#B8D0FF"/>
<path d="M89.5 269.8H161.2" stroke="#B8D0FF" stroke-miterlimit="10"/>
<path d="M89.5 276H161.2" stroke="#B8D0FF" stroke-miterlimit="10"/>
<path d="M89.5 282.2H161.2" stroke="#B8D0FF" stroke-miterlimit="10"/>
<path d="M89.5 288.4H161.2" stroke="#B8D0FF" stroke-miterlimit="10"/>
<path d="M89.5 294.5H161.2" stroke="#B8D0FF" stroke-miterlimit="10"/>
<path d="M89.5 300.7H161.2" stroke="#B8D0FF" stroke-miterlimit="10"/>
<path d="M104.7 218H89.5V226.6H104.7V218Z" fill="#B8D0FF"/>
<path d="M123.5 218H108.3V226.6H123.5V218Z" fill="#B8D0FF"/>
<path d="M142.3 218H127.1V226.6H142.3V218Z" fill="#B8D0FF"/>
<path d="M161.2 218H146V226.6H161.2V218Z" fill="#B8D0FF"/>
<path d="M104.7 230H89.5V238.6H104.7V230Z" fill="#B8D0FF"/>
<path d="M123.5 230H108.3V238.6H123.5V230Z" fill="#B8D0FF"/>
<path d="M142.3 230H127.1V238.6H142.3V230Z" fill="#B8D0FF"/>
<path d="M161.2 230H146V238.6H161.2V230Z" fill="#B8D0FF"/>
<path d="M104.7 241.9H89.5V250.5H104.7V241.9Z" fill="#B8D0FF"/>
<path d="M123.5 241.9H108.3V250.5H123.5V241.9Z" fill="#B8D0FF"/>
<path d="M142.3 241.9H127.1V250.5H142.3V241.9Z" fill="#B8D0FF"/>
<path d="M161.2 241.9H146V250.5H161.2V241.9Z" fill="#B8D0FF"/>
<path d="M104.7 253.8H89.5V262.4H104.7V253.8Z" fill="#B8D0FF"/>
<path d="M123.5 253.8H108.3V262.4H123.5V253.8Z" fill="#B8D0FF"/>
<path d="M142.3 253.8H127.1V262.4H142.3V253.8Z" fill="#B8D0FF"/>
<path d="M161.2 253.8H146V262.4H161.2V253.8Z" fill="#B8D0FF"/>
<path d="M227.4 161.3H104V166H227.4V161.3Z" fill="#89A4D9"/>
<path d="M181.5 166H92.3998L79.7998 106.7H168.9L181.5 166Z" fill="white"/>
<path d="M166 108L178.3 166" stroke="#89A4D9" stroke-width="0.8758" stroke-miterlimit="10"/>
<path d="M138.5 135.7C139.5 140.4 136 144.2 130.6 144.2C125.3 144.2 120.1 140.4 119.1 135.7C118.1 131 121.6 127.2 127 127.2C132.3 127.2 137.5 131 138.5 135.7Z" stroke="#89A4D9" stroke-width="0.759" stroke-miterlimit="10"/>
<path d="M115.7 60.1H63.2004C57.5004 60.1 52.9004 64.7 52.9004 70.4V93.8C52.9004 99.5 57.5004 104.1 63.2004 104.1H77.3004C80.2004 104.1 82.7004 106 83.4004 108.8L89.4004 131.4L95.4004 108.8C96.1004 106 98.7004 104.1 101.5 104.1H115.6C121.3 104.1 125.9 99.5 125.9 93.8V70.3C126 64.7 121.4 60.1 115.7 60.1Z" fill="#9EC0FF"/>
<path d="M109.4 71H72.2002V95.7H109.4V71Z" stroke="white" stroke-width="0.8758" stroke-miterlimit="10"/>
<path d="M74.7998 73.6L90.7998 85.7L106.7 73.6" stroke="white" stroke-width="0.8758" stroke-miterlimit="10"/>
<path d="M93.8994 83.2999L106.699 93.0999" stroke="white" stroke-width="0.8758" stroke-miterlimit="10"/>
<path d="M74.7998 93.1L87.6998 83.4" stroke="white" stroke-width="0.8758" stroke-miterlimit="10"/>
<path d="M80.2 71C80.2 74.9 77 78.1 73.1 78.1C69.2 78.2 66 75 66 71C66 67.1 69.2 63.9 73.1 63.9C77.1 63.9 80.2 67.1 80.2 71Z" fill="#2E6ADB"/>
<path d="M68.7998 70.3L72.1998 73.2L77.3998 68.8" stroke="white" stroke-width="0.75" stroke-miterlimit="10" stroke-linecap="round" stroke-linejoin="round"/>
<path d="M383.5 33.6L388.9 63.4H438.4L433 33.6H383.5Z" fill="#5181DB"/>
<path d="M437.8 24.1H389.1V63.4H437.8V24.1Z" fill="white"/>
<path d="M419.6 29.2999L414.3 35.9999H393.8L389.1 63.3999H438.6L444.4 29.2999H419.6Z" fill="#9EC0FF"/>
<path d="M69.5506 184.504C73.9244 180.131 73.9244 173.039 69.5506 168.665C65.1767 164.292 58.0853 164.292 53.7115 168.665C49.3377 173.039 49.3377 180.131 53.7115 184.504C58.0854 188.878 65.1767 188.878 69.5506 184.504Z" fill="#2E6ADB"/>
<path d="M474.345 27.6527C475.76 21.631 472.025 15.6026 466.004 14.188C459.982 12.7734 453.954 16.5081 452.539 22.5298C451.124 28.5514 454.859 34.5798 460.881 35.9944C466.902 37.4091 472.931 33.6743 474.345 27.6527Z" fill="#2E6ADB"/>
<path d="M547.075 248.803C548.503 242.784 544.782 236.747 538.763 235.319C532.745 233.891 526.708 237.612 525.279 243.631C523.851 249.649 527.572 255.686 533.591 257.114C539.61 258.542 545.646 254.821 547.075 248.803Z" fill="#2E6ADB"/>
<path d="M208.822 124.385C213.196 120.011 213.196 112.92 208.822 108.546C204.448 104.172 197.357 104.172 192.983 108.546C188.609 112.92 188.609 120.011 192.983 124.385C197.357 128.759 204.448 128.759 208.822 124.385Z" fill="#2E6ADB"/>
<path d="M308.491 404.36C313.33 400.506 314.128 393.46 310.274 388.622C306.421 383.783 299.374 382.985 294.536 386.839C289.698 390.692 288.899 397.738 292.753 402.577C296.607 407.415 303.653 408.213 308.491 404.36Z" fill="#2E6ADB"/>
<path d="M300.1 137.3C337.876 137.3 368.5 106.676 368.5 68.9C368.5 31.1237 337.876 0.5 300.1 0.5C262.324 0.5 231.7 31.1237 231.7 68.9C231.7 106.676 262.324 137.3 300.1 137.3Z" stroke="white" stroke-miterlimit="10"/>
<path d="M342.465 111.221C365.857 87.8289 365.857 49.9027 342.465 26.5106C319.073 3.11838 281.147 3.11837 257.755 26.5105C234.363 49.9027 234.363 87.829 257.755 111.221C281.147 134.613 319.073 134.613 342.465 111.221Z" stroke="white" stroke-miterlimit="10"/>
<path d="M300.001 221.2L185.101 244.3L300.001 316.6L415.001 244.3L300.001 221.2Z" fill="#141D30"/>
<path d="M356.6 223.6L352.5 215.1L374.6 117.1L317.2 99.8999H300H282.8L225.4 117.1L247.5 215.1L243.4 223.6L220.5 236.1L273.8 274.1C281.7 278.8 291.9 274.7 294.4 265.8L300 245.2L305.6 265.8C308 274.7 318.3 278.8 326.2 274.1L379.5 236.1L356.6 223.6Z" fill="#26395E"/>
<path d="M282.9 102.2H317.2L300 185L282.9 102.2Z" fill="#DEDEDE"/>
<path d="M283.3 104.1L306.1 183.3L295.8 190.3L283.3 104.1Z" fill="#ABABAB"/>
<path d="M343.501 129.9C343.501 129.9 332.801 110.7 317.201 102.2L300.001 185L282.901 102.2C267.301 110.8 256.601 129.9 256.601 129.9L272.101 138.9L256.601 138.6C256.601 138.6 270.401 169.8 303.701 199.2C312.101 189.6 333.101 164.5 343.501 138.6L328.001 138.9L343.501 129.9Z" fill="#141D30"/>
<path d="M284.2 95.7H315.8L300 110.7L284.2 95.7Z" fill="white"/>
<path d="M317.2 68.5C317.2 68.5 319.2 61.2 320.6 54.7999C322 48.4 318.9 45.4 316.5 44.2999C314.4 32.9 306.6 28.2 298.9 28.2C298.2 28.2 297.9 29.1 298.5 29.5C301.4 31.4 302.6 34.0999 302.6 34.0999C302.6 34.0999 292.7 31.8 282.9 37.5C273.1 43.2 274.9 47.3999 279.5 50.0999C279.5 50.0999 279.9 59.2 282.4 68.3L317.2 68.5Z" fill="#142F61"/>
<path d="M300 185C302.7 198.5 308.4 213.1 308.4 213.1L300.7 242.8" stroke="#141D30" stroke-width="0.7631" stroke-miterlimit="10"/>
<path d="M300.1 216C301.812 216 303.2 214.612 303.2 212.9C303.2 211.188 301.812 209.8 300.1 209.8C298.388 209.8 297 211.188 297 212.9C297 214.612 298.388 216 300.1 216Z" fill="#DEDEDE"/>
<path d="M296.9 241.1C296.9 242.8 295.5 244.2 293.8 244.2C292.1 244.2 290.7 242.8 290.7 241.1C290.7 239.4 292.1 238 293.8 238C295.5 238 296.9 239.4 296.9 241.1Z" fill="#DEDEDE"/>
<path d="M286.7 194.9L301.8 208.2" stroke="#141D30" stroke-width="0.7631" stroke-miterlimit="10"/>
<path d="M298.5 217.7L287.8 224.7" stroke="#141D30" stroke-width="0.7631" stroke-miterlimit="10"/>
<path d="M281.034 232.404L252.033 224.727L250.984 228.691L279.985 236.368L281.034 232.404Z" fill="#496EB5"/>
<path d="M320.094 236.39L349.095 228.713L348.046 224.75L319.045 232.427L320.094 236.39Z" fill="#496EB5"/>
<path d="M343 325.6L364.7 338L360.6 364.1L333.1 347.8L343 325.6Z" fill="white"/>
<path d="M357.999 332.9L359.399 353.5L354.399 349.6L344.399 358.3L355.099 365.4L363.399 387.3L367.099 400.9C367.599 402.7 369.799 403.3 371.199 402C374.299 399 378.499 393.2 378.899 384C379.399 369 376.399 356.9 376.399 356.9L380.299 357.6L381.699 340L377.499 339.7C377.499 339.6 369.899 331.6 357.999 332.9Z" fill="#141D30"/>
<path d="M159.9 265.8C164 244.5 193.3 235.8 221 250.7C248.8 265.6 349.6 321.7 349.6 321.7L332.5 366.3C321.5 362.6 320.4 357.5 311.5 354.3C304.2 351.6 302.1 355 290.5 351.1C279 347.2 275.2 342.9 268.6 340.6C258.1 336.9 248.2 338 238.5 334.7C222 329.1 207.9 324.3 200.7 321.8C171.5 311.5 155.7 287.2 159.9 265.8Z" fill="#26395E"/>
<path d="M324.3 356.4L334.5 313.2C337.8 315 340.6 316.6 342.9 317.9L324.3 356.4Z" fill="#141D30"/>
<path d="M342.899 326.9L237.399 259.6" stroke="#141D30" stroke-width="0.7631" stroke-miterlimit="10"/>
<path d="M376.9 341.4L375.7 354.5" stroke="#496EB5" stroke-width="0.6883" stroke-miterlimit="10"/>
<path d="M332.499 366.3C327.799 364.7 324.899 362.9 322.399 361L340.399 316.5C346.199 319.7 349.599 321.6 349.599 321.6L332.499 366.3Z" fill="#496EB5"/>
<path d="M380.4 355L381.6 339.8L377.4 339.5C377.4 339.5 369.8 331.5 357.9 332.9L358 334.2L347.1 328L349.5 321.6C349.5 321.6 317.3 303.7 284.3 285.5L218 327.6C224.1 329.7 231 332 238.4 334.5C248.2 337.8 258 336.8 268.5 340.4C275.1 342.7 278.9 347 290.4 350.9C301.9 354.8 304.1 351.5 311.4 354.1C320.2 357.3 321.3 362.4 332.4 366.1L338.3 350.7L346.9 355.8L344.3 358L355 365.1L355.3 365.9L376.2 356.6L380.4 355Z" fill="#141D30"/>
<path d="M440.2 265.8C436.1 244.5 406.8 235.8 379.1 250.7C351.4 265.6 250.5 321.7 250.5 321.7L267.6 366.3C278.6 362.6 279.7 357.5 288.6 354.3C295.9 351.6 298 355 309.6 351.1C321.1 347.2 324.9 342.9 331.5 340.6C342 336.9 351.9 338 361.6 334.7C378.1 329.1 392.2 324.3 399.4 321.8C428.6 311.5 444.3 287.2 440.2 265.8Z" fill="#26395E"/>
<path d="M275.8 356.4L265.6 313.2C262.3 315 259.5 316.6 257.2 317.9L275.8 356.4Z" fill="#141D30"/>
<path d="M257.2 326.9L362.7 259.6" stroke="#141D30" stroke-width="0.7631" stroke-miterlimit="10"/>
<path d="M257.1 325.6L235.3 338L239.5 364.1L267 347.8L257.1 325.6Z" fill="white"/>
<path d="M242 332.9L240.6 353.5L245.6 349.6L255.6 358.3L244.9 365.4L236.6 387.3L232.9 400.9C232.4 402.7 230.2 403.3 228.8 402C225.7 399 221.5 393.2 221.1 384C220.6 369 223.6 356.9 223.6 356.9L219.7 357.6L218.3 340L222.5 339.7C222.6 339.6 230.1 331.6 242 332.9Z" fill="#141D30"/>
<path d="M223.2 341.4L224.4 354.5" stroke="#496EB5" stroke-width="0.6883" stroke-miterlimit="10"/>
<path d="M267.499 366.3C272.199 364.7 275.099 362.9 277.599 361L259.599 316.5C253.799 319.7 250.399 321.6 250.399 321.6L267.499 366.3Z" fill="#496EB5"/>
<path d="M126.1 214.5C120.4 211.4 132.2 183.8 132.2 183.8L142.2 188.1C142.1 188.1 131.9 217.7 126.1 214.5Z" fill="#ABABAB"/>
<path d="M146.3 189.9L124.5 180.5C124.5 180.5 125.9 174.1 120.8 169.3C117.9 166.6 114.3 163.9 114.3 163.9L112.1 166L116 170.6L115.9 176.4H105.3L93.0002 172.6L92.1002 175.6L90.7002 174.9L89.2002 179.2L91.8002 180.8L90.6002 183.9L95.9002 187.8L101.8 189.1L95.0002 189L91.2002 186.7L90.4002 189L95.2002 191.7C95.2002 191.7 106 195.9 118.1 193L138 209.8L146.3 189.9Z" fill="#FF8C8C"/>
<path d="M138 209.9L146.3 189.9L129.3 182.6C130.8 188.5 130.8 195.1 129.7 202.9L138 209.9Z" fill="#D45151"/>
<path d="M128.1 230.6C123.1 227.9 130.8 213 130.8 213L147 219.9C147 219.8 133.6 233.6 128.1 230.6Z" fill="#141D30"/>
<path d="M150.001 190.9L137.901 186.2C137.901 186.2 134.401 211.5 126.101 214.6L150.001 229.6V190.9Z" fill="white"/>
<path d="M209.601 248C210.201 247.4 210.501 246.8 210.701 246.2C189.001 239 168.301 245.4 161.601 260.3C174.601 270.2 199.201 259.1 209.601 248Z" fill="#141D30"/>
<path d="M225.501 117.1L240.101 181.9L222.001 231.4C214.601 251.5 191.501 260.9 172.201 251.7L128.101 230.6C128.101 230.6 138.801 233.4 150.001 190.9L180.101 203.8L212.701 142.2C212.701 142.2 212.701 131.4 225.501 117.1Z" fill="#26395E"/>
<path d="M139.9 219L172 234.8" stroke="#141D30" stroke-width="0.7631" stroke-miterlimit="10"/>
<path d="M150.4 218.8C151.615 218.8 152.6 217.815 152.6 216.6C152.6 215.385 151.615 214.4 150.4 214.4C149.185 214.4 148.2 215.385 148.2 216.6C148.2 217.815 149.185 218.8 150.4 218.8Z" fill="#DEDEDE"/>
<path d="M165.2 223.4C165.2 224.6 164.2 225.6 163 225.6C161.8 225.6 160.8 224.6 160.8 223.4C160.8 222.2 161.8 221.2 163 221.2C164.2 221.2 165.2 222.2 165.2 223.4Z" fill="#DEDEDE"/>
<path d="M180.101 203.8L199.401 212.5" stroke="#141D30" stroke-width="0.7631" stroke-miterlimit="10"/>
<path d="M185.101 203L205.001 203.8" stroke="#141D30" stroke-width="0.7631" stroke-miterlimit="10"/>
<path d="M230 137.2C228.7 141.4 225.7 154.1 228.4 173.8C228.7 176.2 228.5 178.7 227.8 181.1C223.2 194.9 226.5 207.9 228.5 213.6L240.1 182L230 137.2Z" fill="#141D30"/>
<path d="M92 175.5L104.3 179.9L108.6 180.3" stroke="#D45151" stroke-miterlimit="10"/>
<path d="M91.7002 180.7L99.9002 184.3L107.2 185" stroke="#D45151" stroke-miterlimit="10"/>
<path d="M109.201 178.6L106.601 187.8" stroke="#D45151" stroke-miterlimit="10"/>
<path d="M108.601 186.9C111.301 184.8 116.301 182.5 120.901 185.5" stroke="#D45151" stroke-miterlimit="10"/>
<path d="M474 214.5C479.7 211.4 467.9 183.8 467.9 183.8L457.9 188.1C457.9 188.1 468.2 217.7 474 214.5Z" fill="#ABABAB"/>
<path d="M453.801 189.9L475.601 180.5C475.601 180.5 474.201 174.1 479.301 169.3C482.201 166.6 485.801 163.9 485.801 163.9L488.001 166L484.101 170.6L484.201 176.4H494.801L507.101 172.6L508.001 175.6L509.401 174.9L510.901 179.2L508.301 180.8L509.501 183.9L504.201 187.8L498.301 189.1L505.001 189.2L508.801 186.9L509.601 189.2L504.801 191.9C504.801 191.9 494.001 196.1 481.901 193.2L462.001 209.9L453.801 189.9Z" fill="#FF8C8C"/>
<path d="M462 209.9L453.7 189.9L470.7 182.6C469.2 188.5 469.2 195.1 470.3 202.9L462 209.9Z" fill="#D45151"/>
<path d="M472.001 230.6C477.001 227.9 469.301 213 469.301 213L453.101 219.9C453.101 219.8 466.501 233.6 472.001 230.6Z" fill="#141D30"/>
<path d="M450.101 190.9L462.201 186.2C462.201 186.2 465.701 211.5 474.001 214.6L450.101 229.6V190.9Z" fill="white"/>
<path d="M390.5 248C389.9 247.4 389.6 246.8 389.4 246.2C411.1 239 431.8 245.4 438.5 260.3C425.5 270.2 400.9 259.1 390.5 248Z" fill="#141D30"/>
<path d="M374.6 117.1L360 181.9L378.1 231.3C385.5 251.4 408.6 260.8 427.9 251.6L472 230.5C472 230.5 461.3 233.3 450.1 190.8L420 203.8L387.4 142.2C387.4 142.2 387.4 131.4 374.6 117.1Z" fill="#26395E"/>
<path d="M460.2 219L428 234.8" stroke="#141D30" stroke-width="0.7631" stroke-miterlimit="10"/>
<path d="M449.7 218.8C450.915 218.8 451.9 217.815 451.9 216.6C451.9 215.385 450.915 214.4 449.7 214.4C448.485 214.4 447.5 215.385 447.5 216.6C447.5 217.815 448.485 218.8 449.7 218.8Z" fill="#DEDEDE"/>
<path d="M434.9 223.4C434.9 224.6 435.9 225.6 437.1 225.6C438.3 225.6 439.3 224.6 439.3 223.4C439.3 222.2 438.3 221.2 437.1 221.2C435.9 221.2 434.9 222.2 434.9 223.4Z" fill="#DEDEDE"/>
<path d="M420 203.8L400.7 212.5" stroke="#141D30" stroke-width="0.7631" stroke-miterlimit="10"/>
<path d="M415.001 203L395.101 203.8" stroke="#141D30" stroke-width="0.7631" stroke-miterlimit="10"/>
<path d="M370 137.2C371.3 141.4 374.3 154.1 371.6 173.8C371.3 176.2 371.5 178.7 372.2 181.1C376.8 194.9 373.5 207.9 371.5 213.6L359.9 182L370 137.2Z" fill="#141D30"/>
<path d="M508.1 175.5L495.8 179.9L491.5 180.3" stroke="#D45151" stroke-miterlimit="10"/>
<path d="M508.4 180.7L500.2 184.3L492.9 185" stroke="#D45151" stroke-miterlimit="10"/>
<path d="M490.9 178.6L493.5 187.8" stroke="#D45151" stroke-miterlimit="10"/>
<path d="M491.5 186.9C488.8 184.8 483.8 182.5 479.2 185.5" stroke="#D45151" stroke-miterlimit="10"/>
<path d="M311.701 77.7H300.001H288.301L287.101 99.7L300.001 107.3L312.901 99.7L311.701 77.7Z" fill="#FF8C8C"/>
<path d="M303.1 113.5H296.9L293.9 103.4H306.1L303.1 113.5Z" fill="#125EC9"/>
<path d="M304.5 92.9999C306.5 92.9999 309.4 92.4999 312.5 91.1999L311.8 77.7999H300H288.3L287.9 84.4999C293 91.1999 300.5 92.9999 304.5 92.9999Z" fill="#D45151"/>
<path d="M284.851 74.7549C287.352 73.4603 288.187 70.1048 286.715 67.2599C285.242 64.4151 282.021 63.1584 279.52 64.4529C277.018 65.7474 276.184 69.103 277.656 71.9479C279.128 74.7927 282.349 76.0494 284.851 74.7549Z" fill="#D45151"/>
<path d="M279.301 68.8C280.001 65.7 283.401 65.4 286.201 69" stroke="#FF8C8C" stroke-width="0.7091" stroke-miterlimit="10"/>
<path d="M313.301 67.3001C311.801 70.2001 312.601 73.5001 315.101 74.8001C317.601 76.1001 320.801 74.8001 322.301 71.9001C323.801 69.0001 323.001 65.7001 320.501 64.4001C318.001 63.2001 314.801 64.4001 313.301 67.3001Z" fill="#D45151"/>
<path d="M320.701 68.8001C320.001 65.7001 316.601 65.4001 313.801 69.0001" stroke="#FF8C8C" stroke-width="0.7091" stroke-miterlimit="10"/>
<path d="M315.8 61C313.8 58.7 312.8 55.6 313.3 52.5C313.5 51.2 312.5 50 311.2 50H300H288.8C287.5 50 286.5 51.2 286.7 52.5C287.2 55.6 286.3 58.7 284.2 61L282.8 62.6C283.7 82.1 295.2 86.4 300 86.4C304.8 86.4 316.2 82.1 317.2 62.6L315.8 61Z" fill="#FF8C8C"/>
<path d="M289.601 63.3C291.101 65.3 294.301 65.2 296.401 63.1" stroke="#142F61" stroke-width="0.75" stroke-miterlimit="10"/>
<path d="M288.4 58.6999C291.1 57.1999 294.1 56.9999 296.7 58.6999" stroke="#142F61" stroke-miterlimit="10"/>
<path d="M310.401 63.3C308.901 65.3 305.701 65.2 303.601 63.1" stroke="#142F61" stroke-width="0.75" stroke-miterlimit="10"/>
<path d="M311.601 58.6999C308.901 57.1999 305.901 56.9999 303.301 58.6999" stroke="#142F61" stroke-miterlimit="10"/>
<path d="M299.2 61.1V68.3L302.5 67.6" stroke="#D45151" stroke-miterlimit="10"/>
<path d="M294.4 70.6C294.4 70.6 298.8 73.6 305.6 70.6" stroke="#142F61" stroke-miterlimit="10"/>
<path d="M298.101 75H301.901" stroke="#D45151" stroke-miterlimit="10"/>
<path d="M298.5 103.4L294.3 112.3L280.7 102.1L284.2 95.7L298.5 103.4Z" fill="white"/>
<path d="M301.5 103.4L305.7 112.3L319.3 102.1L315.8 95.7L301.5 103.4Z" fill="white"/>
<path d="M303.1 113.5H296.8C296.8 113.5 297.3 130.6 302.3 139.6C311.2 155.7 330.7 152.4 335.7 159.8C340.7 167.2 346 178.5 369.6 175.1L384 160.9L369 154C369 154 358.8 158.3 352 150.6C345.3 142.9 339.4 140.5 330 140.8C320.6 140.9 305.1 135.7 303.1 113.5Z" fill="#125EC9"/>
<path d="M304.099 119.5C303.699 117.6 303.399 115.6 303.199 113.5H296.899C296.899 113.5 296.899 113.7 296.899 114.1C298.999 115.3 301.999 117.3 304.099 119.5Z" fill="#0E4899"/>
</g>
<defs>
<clipPath id="clip0_782_8204">
<rect width="600" height="455.1" fill="white"/>
</clipPath>
</defs>
</svg>
