<svg width="651" height="416" viewBox="0 0 651 416" fill="none" xmlns="http://www.w3.org/2000/svg">
<g clip-path="url(#clip0_782_6950)">
<path d="M362.5 134.7C335.1 130.8 309.2 120.1 286.8 103.9C253.4 79.6999 183.4 38.4999 116.7 58.9999C24.6998 87.2999 24.2998 169.2 48.1998 213.7C72.1998 258.2 242.1 388.5 462.5 367.7C659.7 349.1 698.1 136.8 592.9 98.3999C501.9 65.1999 470.8 150.1 362.5 134.7Z" fill="#D9E5F9"/>
<path d="M610.8 131.1C610.8 71.7 563.2 6.59995 503.9 2.59995C502.9 2.49995 501.8 2.49995 500.7 2.39995C415.7 -1.70005 409.2 105.9 332.3 118.1C255.4 130.3 196.7 68.9999 104.7 109C22.0002 144.9 -0.299805 346.7 242.5 354.8C436.8 361.3 610.8 308.3 610.8 131.1Z" fill="#C9DAF4"/>
<path d="M35.9415 212.854C37.5607 205.068 32.5616 197.443 24.7757 195.824C16.9898 194.205 9.3655 199.204 7.74629 206.99C6.12708 214.776 11.1262 222.4 18.912 224.019C26.6979 225.639 34.3223 220.639 35.9415 212.854Z" fill="#D9E5F9"/>
<path d="M251.405 56.2791C257.74 53.6781 260.768 46.4337 258.167 40.0983C255.566 33.7629 248.321 30.7356 241.986 33.3366C235.65 35.9376 232.623 43.182 235.224 49.5174C237.825 55.8528 245.07 58.8801 251.405 56.2791Z" fill="#C9DAF4"/>
<path d="M590.511 358.791C595.354 353.948 595.354 346.097 590.511 341.255C585.669 336.412 577.818 336.412 572.975 341.255C568.133 346.097 568.133 353.948 572.975 358.791C577.818 363.633 585.669 363.633 590.511 358.791Z" fill="#C9DAF4"/>
<path d="M628.601 77.7999C628.601 81.8999 625.301 85.2999 621.101 85.2999C616.901 85.2999 613.601 81.9999 613.601 77.7999C613.601 73.6999 616.901 70.2999 621.101 70.2999C625.301 70.2999 628.601 73.5999 628.601 77.7999Z" fill="#D9E5F9"/>
<path d="M228.374 25.0127C229.27 20.9687 226.718 16.9644 222.674 16.0689C218.63 15.1734 214.625 17.7257 213.73 21.7697C212.834 25.8136 215.387 29.8179 219.431 30.7134C223.475 31.6089 227.479 29.0566 228.374 25.0127Z" fill="#D9E5F9"/>
<path d="M12.7711 182.493C15.7 179.564 15.7 174.815 12.7711 171.886C9.84217 168.958 5.09348 168.958 2.16458 171.886C-0.764326 174.815 -0.764326 179.564 2.16458 182.493C5.09348 185.422 9.84217 185.422 12.7711 182.493Z" fill="#D9E5F9"/>
<path d="M620.997 332.628C621.952 328.597 619.458 324.556 615.428 323.601C611.397 322.646 607.355 325.14 606.401 329.17C605.446 333.201 607.939 337.243 611.97 338.197C616.001 339.152 620.042 336.659 620.997 332.628Z" fill="#D9E5F9"/>
<path d="M492.8 345.5V146.8H376.1V345.5C376.1 351.1 380.7 355.7 386.3 355.7H482.6C488.2 355.7 492.8 351.1 492.8 345.5Z" fill="white"/>
<path d="M443.4 217.1H425.6V256.6H443.4V217.1Z" fill="#F79C00"/>
<path d="M441.6 241.6C442.2 241.6 442.8 241.7 443.4 241.7V256.7H425.6V241.6C430.3 241.3 435.7 241.2 441.6 241.6Z" fill="#D16E00"/>
<path d="M414.3 238.3H396.5V256.7H414.3V238.3Z" fill="#F79C00"/>
<path d="M396.5 248.5C400.1 246.7 405.9 244.4 414.3 242.9V256.6H396.5V248.5Z" fill="#D16E00"/>
<path d="M472.5 194.3H454.7V256.6H472.5V194.3Z" fill="#F79C00"/>
<path d="M472.5 231.5V256.6H454.7V240.9C463.4 239.5 468.8 235.8 472.5 231.5Z" fill="#D16E00"/>
<path d="M471.8 165L455.6 168.5L459.9 172.8L435.2 198L426.5 189.5L395.7 220.9C394.5 222.1 394.5 224 395.7 225.2C396.9 226.4 398.8 226.4 400 225.2L426.5 198.2L435.2 206.7L464.2 177.1L468.5 181.4L471.8 165Z" fill="#006FF9"/>
<path d="M430.3 269.4H389.1C387.9 269.4 386.8 270.4 386.7 271.6C386.6 272.9 387.7 274 389 274H430.3C431.6 274 432.6 273 432.6 271.7C432.6 270.4 431.5 269.4 430.3 269.4Z" fill="#C9DAF4"/>
<path d="M432.599 281.6C432.599 280.3 431.599 279.3 430.299 279.3H388.999C387.699 279.3 386.699 280.3 386.699 281.6C386.699 282.9 387.699 283.9 388.999 283.9H430.299C431.499 283.9 432.599 282.8 432.599 281.6Z" fill="#C9DAF4"/>
<path d="M432.599 291.4C432.599 290.1 431.599 289.1 430.299 289.1H388.999C387.699 289.1 386.699 290.1 386.699 291.4C386.699 292.7 387.699 293.7 388.999 293.7H430.299C431.499 293.7 432.599 292.7 432.599 291.4Z" fill="#C9DAF4"/>
<path d="M430.3 299H389.1C387.9 299 386.8 300 386.7 301.2C386.6 302.5 387.7 303.6 389 303.6H430.3C431.6 303.6 432.6 302.6 432.6 301.3C432.6 300 431.5 299 430.3 299Z" fill="#C9DAF4"/>
<path d="M430.3 308.9H389.1C387.9 308.9 386.8 309.9 386.7 311.1C386.6 312.4 387.7 313.5 389 313.5H430.3C431.6 313.5 432.6 312.5 432.6 311.2C432.6 309.9 431.5 308.9 430.3 308.9Z" fill="#C9DAF4"/>
<path d="M479.199 342.4H389.699C387.999 342.4 386.699 341 386.699 339.4V326.5C386.699 324.8 388.099 323.5 389.699 323.5H479.199C480.899 323.5 482.199 324.9 482.199 326.5V339.4C482.299 341 480.899 342.4 479.199 342.4Z" fill="#C9DAF4"/>
<path d="M484 293.2C484 305.5 474.1 315.4 461.8 315.4C449.5 315.4 439.6 305.5 439.6 293.2C439.6 290.2 440.2 287.3 441.3 284.6L461.8 293.2L460.7 271C461 271 461.4 271 461.8 271C474.1 271 484 280.9 484 293.2Z" fill="#006FF9"/>
<path d="M458.699 267.5C452.099 267.8 446.199 271 442.299 275.9C441.099 277.5 439.999 279.2 439.199 281.1L459.699 289.7L458.699 267.5Z" fill="#FF4231"/>
<path d="M393.799 177.5V179.3H391.499V177.6C389.899 177.5 388.299 177.1 387.399 176.5L388.599 173.7C389.699 174.3 391.099 174.7 392.299 174.7C393.399 174.7 393.799 174.5 393.799 174.1C393.799 172.7 387.599 173.8 387.599 169.6C387.599 167.8 388.899 166.3 391.599 165.9V164.1H393.899V165.8C395.099 165.9 396.199 166.2 397.199 166.7L396.099 169.4C394.999 168.8 393.899 168.6 392.999 168.6C391.899 168.6 391.499 168.9 391.499 169.3C391.499 170.7 397.699 169.5 397.699 173.7C397.599 175.6 396.299 177.1 393.799 177.5Z" fill="#C9DAF4"/>
<path d="M430.499 165.8H403.199C401.999 165.8 400.899 166.8 400.799 168C400.699 169.3 401.799 170.4 403.099 170.4H430.499C431.799 170.4 432.799 169.4 432.799 168.1C432.799 166.8 431.699 165.8 430.499 165.8Z" fill="#C9DAF4"/>
<path d="M430.499 175H403.199C401.999 175 400.899 176 400.799 177.2C400.699 178.5 401.799 179.6 403.099 179.6H430.499C431.799 179.6 432.799 178.6 432.799 177.3C432.799 176 431.699 175 430.499 175Z" fill="#C9DAF4"/>
<path d="M492.8 143.5V155.2H376.1V143.5C376.1 140.3 378.7 137.7 381.9 137.7H487C490.2 137.7 492.8 140.3 492.8 143.5Z" fill="#55A6FF"/>
<path d="M467.599 146.8C467.599 148.5 466.199 150 464.399 150C462.699 150 461.199 148.6 461.199 146.8C461.199 145.1 462.599 143.6 464.399 143.6C466.099 143.7 467.599 145.1 467.599 146.8Z" fill="#0045BD"/>
<path d="M477.799 146.8C477.799 148.5 476.399 150 474.599 150C472.799 150 471.399 148.6 471.399 146.8C471.399 145.1 472.799 143.6 474.599 143.6C476.399 143.6 477.799 145.1 477.799 146.8Z" fill="#FF4231"/>
<path d="M487.599 146.8C487.599 148.5 486.199 150 484.399 150C482.699 150 481.199 148.6 481.199 146.8C481.199 145.1 482.599 143.6 484.399 143.6C486.199 143.7 487.599 145.1 487.599 146.8Z" fill="#21181E"/>
<path d="M199.4 115.8V8.40002H102.4V115.8C102.4 120.6 106.3 124.4 111 124.4H190.8C195.5 124.4 199.4 120.5 199.4 115.8Z" fill="white"/>
<path d="M126.4 114.2H120.2C118.7 114.2 117.5 113 117.5 111.5V89.1C117.5 87.6 118.7 86.4 120.2 86.4H126.4C127.9 86.4 129.1 87.6 129.1 89.1V111.6C129.1 113 127.9 114.2 126.4 114.2Z" fill="#006FF9"/>
<path d="M129.1 101.4V112.5C129.1 113.4 128.3 114.2 127.4 114.2H119.3C118.4 114.2 117.6 113.4 117.6 112.5V102.9C119.6 101.7 123.1 100.8 129.1 101.4Z" fill="#0045BD"/>
<path d="M143.4 114.2H137.2C135.7 114.2 134.5 113 134.5 111.5V69.3C134.5 67.8 135.7 66.6 137.2 66.6H143.4C144.9 66.6 146.1 67.8 146.1 69.3V111.6C146 113 144.9 114.2 143.4 114.2Z" fill="#FF4231"/>
<path d="M146 101.9V112.6C146 113.5 145.2 114.3 144.3 114.3H136.2C135.3 114.3 134.5 113.5 134.5 112.6V102.2C138.8 102.6 142.6 102.5 146 101.9Z" fill="#B81A2A"/>
<path d="M162.2 114.2H156C154.5 114.2 153.3 113 153.3 111.5V54.7C153.3 53.2 154.5 52 156 52H162.2C163.7 52 164.9 53.2 164.9 54.7V111.6C164.9 113 163.7 114.2 162.2 114.2Z" fill="#006FF9"/>
<path d="M153.3 99.7C157.5 97.9 161.3 95.4 164.8 92.7V112.5C164.8 113.4 164 114.2 163.1 114.2H155C154.1 114.2 153.3 113.4 153.3 112.5V99.7Z" fill="white"/>
<path d="M153.3 99.7C157.5 97.9 161.3 95.4 164.8 92.7V112.5C164.8 113.4 164 114.2 163.1 114.2H155C154.1 114.2 153.3 113.4 153.3 112.5V99.7Z" fill="#0045BD"/>
<path d="M181.6 114.2H173.5C172.6 114.2 171.8 113.4 171.8 112.5V36.6C171.8 35.7 172.6 34.9 173.5 34.9H181.6C182.5 34.9 183.3 35.7 183.3 36.6V112.5C183.3 113.5 182.5 114.2 181.6 114.2Z" fill="#FF4231"/>
<path d="M183.3 88.0001V112.5C183.3 113.4 182.5 114.2 181.6 114.2H173.5C172.6 114.2 171.8 113.4 171.8 112.5V87.3001C175.7 84.9001 179.8 85.9001 183.3 88.0001Z" fill="#B81A2A"/>
<path d="M166.8 27.9L156.2 30.2L159 33L142.7 49.6L137 44L116.8 64.6C116 65.4 116 66.6 116.8 67.4C117.6 68.2 118.8 68.2 119.6 67.4L137 49.6L142.7 55.2L161.8 35.8L164.7 38.6L166.8 27.9Z" fill="#F79C00"/>
<path d="M199.4 4.8V18.1H102.4V4.8C102.4 2.2 104.5 0 107.2 0H194.6C197.2 0 199.4 2.1 199.4 4.8Z" fill="#55A6FF"/>
<path d="M172.7 11.4C174.467 11.4 175.9 9.96731 175.9 8.2C175.9 6.43269 174.467 5 172.7 5C170.933 5 169.5 6.43269 169.5 8.2C169.5 9.96731 170.933 11.4 172.7 11.4Z" fill="#0045BD"/>
<path d="M186.1 8.2C186.1 9.9 184.7 11.4 182.9 11.4C181.2 11.4 179.7 10 179.7 8.2C179.7 6.5 181.1 5 182.9 5C184.7 5 186.1 6.4 186.1 8.2Z" fill="#FF4231"/>
<path d="M195.9 8.2C195.9 9.9 194.5 11.4 192.7 11.4C191 11.4 189.5 10 189.5 8.2C189.5 6.5 190.9 5 192.7 5C194.5 5 195.9 6.4 195.9 8.2Z" fill="#21181E"/>
<path d="M305.2 415.9C350.542 415.9 387.3 412.094 387.3 407.4C387.3 402.706 350.542 398.9 305.2 398.9C259.857 398.9 223.1 402.706 223.1 407.4C223.1 412.094 259.857 415.9 305.2 415.9Z" fill="#C9DAF4"/>
<path d="M377.7 142.6C374.4 142.6 371.5 141.9 368.8 140.4C364.5 138.1 357.9 132.5 344.3 110.3C337.3 98.8 331.8 88.3 331.5 87.8C328.7 82.5 330.8 76 336 73.2C341.3 70.4 347.8 72.5 350.6 77.7C350.7 77.8 355.9 87.9 362.4 98.5C371.8 114 376.7 119.2 378.4 120.8C380 120.4 384.2 119 392.3 113.1C398.5 108.5 403.5 103.8 403.6 103.7C407.9 99.6 414.8 99.8 418.9 104.1C423 108.4 422.8 115.3 418.5 119.4C418.2 119.7 411.2 126.3 402.7 132.3C397.4 136 392.5 138.8 388.1 140.4C384.4 141.9 380.9 142.6 377.7 142.6Z" fill="#006FF9"/>
<path d="M403.399 112.1C403.099 112.8 403.399 113.7 404.199 114C404.899 114.3 405.799 114 406.099 113.2C406.399 112.5 406.099 111.6 405.299 111.3C404.499 111 403.699 111.3 403.399 112.1Z" fill="#0045BD"/>
<path d="M413.6 122.9C407.1 122.9 403.3 119.3 401.2 116.2C398.8 112.6 398.2 109 398.1 108.8C398 108.5 398.3 108.2 398.6 108.1C398.9 108 399.2 108.3 399.3 108.6C399.3 108.6 399.9 112.2 402.2 115.6C405.2 120 409.4 122.1 414.9 121.7C415.2 121.7 415.5 121.9 415.6 122.3C415.6 122.6 415.4 122.9 415 123C414.5 122.8 414 122.9 413.6 122.9Z" fill="#0045BD"/>
<path d="M407.2 120.9C407 120.9 406.8 120.8 406.7 120.6C406.5 120.3 406.6 119.9 406.9 119.8C410.1 117.8 412 114.2 412 114.2C412.2 113.9 412.5 113.8 412.8 113.9C413.1 114.1 413.2 114.4 413.1 114.7C413 114.9 411 118.5 407.6 120.7C407.4 120.9 407.3 120.9 407.2 120.9Z" fill="#0045BD"/>
<path d="M379 108H441.1C442.7 108 444 106.7 444 105.1C444 103.5 442.7 102.2 441.1 102.2H379C377.4 102.2 376.1 103.5 376.1 105.1C376.1 106.7 377.4 108 379 108Z" fill="#B81A2A"/>
<path d="M394.599 108H441.599C442.699 108 443.699 107.4 444.199 106.3L457.099 78.2001C457.999 76.3001 456.599 74.2001 454.499 74.2001H407.499C406.399 74.2001 405.399 74.8001 404.899 75.9001L391.999 104C391.099 105.9 392.499 108 394.599 108Z" fill="#FF4231"/>
<path d="M423 91.1001C423 93.4001 424.8 95.2001 427.1 95.2001C429.4 95.2001 431.2 93.4001 431.2 91.1001C431.2 88.8001 429.4 87.0001 427.1 87.0001C424.8 87.1001 423 88.9001 423 91.1001Z" fill="#B81A2A"/>
<path d="M407.1 112C408.7 114.2 411.5 115.2 414.3 114.8C415.6 114.6 417.1 114.2 418.6 113.4C419.7 112.9 421 111.9 421.9 112C424.2 112.2 425 110.7 425.6 110.5C426.1 110.8 426.9 111 427.8 110.9C429 110.8 430 110.3 430.5 110C432.8 110 434.8 110.1 435.4 109.6C436.7 108.7 437.9 100 435.7 99.6C432.8 99.1 434.3 105.6 431.6 106.8C431.6 106.8 433.6 98.7 430.3 98.1C428.1 97.7 427.7 105.8 425.4 107.3C425.4 107.3 427.6 99.8 425.2 98.6C422.8 97.4 422.8 106.5 420.4 106.7C419.9 106.7 422.4 100.3 419.5 99.9C416.6 99.6 418.2 107.3 409.7 107.1C406.4 107 405 109.2 407.1 112Z" fill="#FF8C64"/>
<path d="M372.599 129.6C372.499 129.6 372.399 129.6 372.299 129.5C371.999 129.3 371.899 128.9 372.099 128.7C373.699 126.1 378.099 121.5 378.199 121.3C378.399 121.1 378.799 121 379.099 121.3C379.299 121.5 379.399 121.9 379.099 122.2C379.099 122.2 374.599 126.9 373.099 129.4C372.999 129.5 372.799 129.6 372.599 129.6Z" fill="#0045BD"/>
<path d="M370.999 125.5C370.799 125.5 370.599 125.4 370.499 125.2C370.399 124.9 370.499 124.5 370.799 124.4C370.999 124.3 375.099 122.4 377.299 122.3C377.599 122.3 377.899 122.5 377.899 122.9C377.899 123.2 377.699 123.5 377.299 123.5C375.299 123.6 371.299 125.5 371.199 125.5C371.199 125.5 371.099 125.5 370.999 125.5Z" fill="#0045BD"/>
<path d="M260.7 371.6L259.6 386.4L274.8 386.7L275.7 372.8L260.7 371.6Z" fill="#FF8C64"/>
<path d="M321.9 201.6L321 204.1L291.3 284C291.3 317 276.4 376.6 276.4 376.6L258.5 375.7L263.4 282.5L263.5 281.2C263.5 281.1 263.6 281 263.6 280.9C268.2 262.5 277.7 216.7 284.2 194.6C284.4 194 284.6 193.4 284.7 192.8C285.7 189.3 286.5 186.6 287 185C287.3 183.9 287.5 183.3 287.5 183.3L292.5 186L293.9 186.8L321.9 201.6Z" fill="#21181E"/>
<path d="M272.8 281.5C270.4 282.4 268 282.8 265.8 282.8C264.9 282.8 264.1 282.7 263.3 282.7L263.4 281.4C263.4 281.3 263.5 281.2 263.5 281.1C264.2 281.2 265 281.2 265.9 281.2C267.9 281.2 270.1 280.9 272.3 280.1C272.7 279.9 273.2 280.1 273.3 280.6C273.5 280.8 273.3 281.3 272.8 281.5Z" fill="#564C54"/>
<path d="M278.3 403.6C278.3 403.7 278.3 403.8 278.3 403.9C278.3 404.4 278.3 404.9 278.2 405.3C278.1 406.2 278.1 406.7 278.1 406.7H248.5C248.5 406.7 248.4 405.6 248.5 403.9C248.7 400.9 249.7 396.1 253.8 393C259.4 388.7 257.2 389.6 258.4 387.6C258.5 387.4 259.5 384 259.6 383.8C260.6 381.8 261.4 380.8 266.7 380.8C273.7 380.8 274.3 384.2 275.1 386C275.4 386.7 275.8 388.3 276.3 390.2C276.5 390.9 276.7 391.7 276.8 392.6C277.2 394.6 277.6 396.8 277.9 398.5C278.2 400.2 278.3 402.1 278.3 403.6Z" fill="#60181E"/>
<path d="M278.299 403.6C278.299 403.7 278.299 403.8 278.299 403.9C278.299 404.4 278.299 404.9 278.199 405.3C276.799 404.3 275.699 403 275.099 401.3C273.299 396.3 276.099 390.3 276.199 390.1H276.299C276.499 390.8 276.699 391.6 276.799 392.5C276.099 394.5 275.399 398 276.399 400.9C276.899 402 277.499 402.9 278.299 403.6Z" fill="#893F49"/>
<path d="M278.3 404C278.3 405.7 278.1 406.8 278.1 406.8H248.5C248.5 406.8 248.4 405.7 248.5 404H278.3Z" fill="#893F49"/>
<path d="M267.699 390C267.599 390 267.599 390 267.499 390C263.699 389 260.699 389.9 260.599 389.9C260.199 390 259.699 389.8 259.599 389.3C259.499 388.9 259.699 388.4 260.199 388.3C260.299 388.3 263.699 387.3 267.899 388.4C268.399 388.5 268.599 389 268.499 389.4C268.399 389.8 268.099 390 267.699 390Z" fill="#893F49"/>
<path d="M268.199 386.6C268.099 386.6 268.099 386.6 267.999 386.6C264.199 385.6 261.199 386.5 261.099 386.5C260.699 386.6 260.199 386.4 260.099 385.9C259.999 385.5 260.199 385 260.699 384.9C260.799 384.9 264.199 383.9 268.399 385C268.899 385.1 269.099 385.6 268.999 386C268.899 386.4 268.599 386.6 268.199 386.6Z" fill="#893F49"/>
<path d="M266.5 392.7C266.4 392.7 266.4 392.7 266.3 392.7C262.6 391.7 259.5 392.6 259.4 392.6C259 392.7 258.5 392.5 258.4 392C258.3 391.6 258.5 391.1 259 391C259.1 391 262.5 390 266.7 391.1C267.2 391.2 267.4 391.7 267.3 392.1C267.2 392.5 266.8 392.7 266.5 392.7Z" fill="#893F49"/>
<path d="M265 395.8C264.9 395.8 264.9 395.8 264.8 395.8C261.1 394.8 258 395.7 257.9 395.7C257.5 395.8 257 395.6 256.9 395.1C256.8 394.7 257 394.2 257.5 394.1C257.6 394.1 261 393.1 265.2 394.2C265.7 394.3 265.9 394.8 265.8 395.2C265.7 395.5 265.3 395.8 265 395.8Z" fill="#893F49"/>
<path d="M274.499 376.3C274.399 376.3 274.399 376.3 274.299 376.3C273.899 376.2 273.599 375.8 273.699 375.3C273.799 374.9 281.499 336.3 283.699 324.4C285.799 312.6 286.699 281.6 286.699 281.2C286.699 281.1 286.699 281 286.799 280.9C291.799 269.6 314.899 206.5 315.099 205.9C315.299 205.5 315.699 205.3 316.099 205.4C316.499 205.6 316.699 206 316.599 206.4C316.399 207 293.499 269.7 288.299 281.4C288.199 283.8 287.299 313.1 285.299 324.6C283.199 336.5 275.399 375.1 275.299 375.5C275.199 376 274.799 376.3 274.499 376.3Z" fill="#564C54"/>
<path d="M323.5 371.6L323.8 386.5L337.7 386.7L337.8 372.8L323.5 371.6Z" fill="#FF8C64"/>
<path d="M370.299 407.3L320.699 406.8C320.299 406.1 320.099 405.2 320.099 404C319.799 399.8 321.199 393.1 321.899 388.9C321.999 388.4 322.099 387.9 322.099 387.5C322.199 386.8 322.299 386.2 322.299 385.8C322.299 382.4 325.399 383 325.399 383C330.399 388 336.099 380.7 339.399 383.1C339.399 383.1 340.799 384.1 344.699 387.7C348.599 391.3 355.299 393.7 360.999 396.1C368.299 399.3 370.399 402.4 370.799 404.5C370.999 406.2 370.299 407.3 370.299 407.3Z" fill="#60181E"/>
<path d="M370.3 407.3L320.7 406.8C320.3 406.1 320.1 405.2 320.1 404L370.8 404.5C371 406.2 370.3 407.3 370.3 407.3Z" fill="#893F49"/>
<path d="M325.699 406.8H324.199C325.699 405.1 327.099 402.6 326.999 398.9C326.799 394 323.899 390.7 321.899 388.9C321.999 388.4 322.099 387.9 322.099 387.5C324.299 389.2 327.999 392.9 328.199 398.8C328.299 402.4 327.099 405 325.699 406.8Z" fill="#893F49"/>
<path d="M343.799 390.6C343.399 390.6 343.099 390.3 342.999 390C342.899 389.6 343.199 389.1 343.599 389L346.699 388.3C347.099 388.2 347.599 388.5 347.699 388.9C347.799 389.3 347.499 389.8 347.099 389.9L343.999 390.6C343.999 390.6 343.899 390.6 343.799 390.6Z" fill="#893F49"/>
<path d="M340.399 387.9C339.999 387.9 339.699 387.6 339.599 387.3C339.499 386.9 339.799 386.4 340.199 386.3L343.299 385.6C343.699 385.5 344.199 385.8 344.299 386.2C344.399 386.6 344.099 387.1 343.699 387.2L340.599 387.9C340.599 387.9 340.499 387.9 340.399 387.9Z" fill="#893F49"/>
<path d="M346.899 392.5C346.499 392.5 346.199 392.2 346.099 391.9C345.999 391.5 346.299 391 346.699 390.9L349.799 390.2C350.199 390.1 350.699 390.4 350.799 390.8C350.899 391.2 350.599 391.7 350.199 391.8L347.099 392.5C346.999 392.5 346.999 392.5 346.899 392.5Z" fill="#893F49"/>
<path d="M349.999 394.2C349.599 394.2 349.299 393.9 349.199 393.6C349.099 393.2 349.399 392.7 349.799 392.6L352.899 391.9C353.299 391.8 353.799 392.1 353.899 392.5C353.999 392.9 353.699 393.4 353.299 393.5L350.199 394.2C350.099 394.2 350.099 394.2 349.999 394.2Z" fill="#893F49"/>
<path d="M353.399 395.9C352.999 395.9 352.699 395.6 352.599 395.3C352.499 394.9 352.799 394.4 353.199 394.3L356.299 393.6C356.699 393.5 357.199 393.8 357.299 394.2C357.399 394.6 357.099 395.1 356.699 395.2L353.599 395.9C353.499 395.9 353.399 395.9 353.399 395.9Z" fill="#893F49"/>
<path d="M356.999 397.3C356.599 397.3 356.299 397 356.199 396.7C356.099 396.3 356.399 395.8 356.799 395.7L359.899 395C360.299 394.9 360.799 395.2 360.899 395.6C360.999 396 360.699 396.5 360.299 396.6L357.199 397.3C357.099 397.3 357.099 397.3 356.999 397.3Z" fill="#893F49"/>
<path d="M357.6 195.2C351.9 199 338.9 202.1 325.8 203.6C308.9 205.5 291.7 204.7 289.5 199.2C289.3 198.6 289 197.9 288.8 197.3C288.8 197.3 288.8 197.3 288.8 197.2C288.6 196.7 288.5 196.2 288.4 195.7C288.2 194.8 288 193.8 287.8 192.8C287.7 192.2 287.6 191.6 287.5 191.1C286.3 182.1 287.4 172.2 287.4 172.2L351.6 158.7C351.6 158.7 357.9 177 358.9 187.8C359 188.4 359 189 359 189.5C359.1 192.4 358.7 194.5 357.6 195.2Z" fill="#21181E"/>
<path d="M359.1 190.9C359.1 191.4 359.1 191.9 359.1 192.4C359.1 193.6 359.1 194.8 359.1 195.9C359.1 196.5 359.1 197.1 359.1 197.7C359.1 197.8 359.1 197.9 359.1 197.9C359.1 198.5 359.1 199 359.1 199.6C358.7 236 357.4 269.2 354.8 293L354.5 294.6L339.9 377L321.1 375.4C321.1 375.4 321.8 310.1 325.9 295.2L325.8 203.8V190.6L351.2 193.3L352.8 192.8L353.7 192.5L355.3 192L359.1 190.9Z" fill="#21181E"/>
<path d="M354.599 293.1L354.299 294.7C353.999 294.7 353.699 294.7 353.399 294.7C347.299 294.7 342.099 291.7 341.799 291.5C341.399 291.3 341.299 290.8 341.499 290.4C341.699 290 342.199 289.9 342.599 290.1C342.799 290.2 348.399 293.5 354.599 293.1Z" fill="#564C54"/>
<path d="M324.599 370.4C325.099 370.4 325.499 370 325.499 369.6C325.099 314.6 331.999 292.8 331.999 292.5C331.999 292.4 331.999 292.3 331.999 292.2L330.599 204.9C330.599 204.5 330.199 204.1 329.799 204.1C329.399 204.1 328.999 204.5 328.999 204.9L330.399 292.1C329.799 294 323.399 316.4 323.799 369.5C323.899 370.1 324.199 370.4 324.599 370.4Z" fill="#564C54"/>
<path d="M359 189.6C358.9 189.6 358.9 189.6 358.8 189.5C357.6 189.1 356.5 188.6 355.4 187.9C355.1 187.7 354.8 187.5 354.6 187.3C353.6 186.6 352.6 185.7 351.8 184.8C346.6 179.1 345.1 171.1 345 170.6C344.9 170.2 345.2 169.8 345.6 169.7C346 169.6 346.4 169.9 346.5 170.3C346.5 170.4 348.1 178.6 353.3 184C354.1 184.8 354.9 185.5 355.8 186.2C355.9 186.3 356.1 186.4 356.2 186.5C357 187 357.9 187.5 358.8 187.8C358.9 188.4 359 189 359 189.6Z" fill="#564C54"/>
<path d="M332.2 200.2C332.2 200.5 331.9 200.8 331.6 200.9C331.2 200.9 330.9 200.6 330.9 200.3C330.8 197.9 330.6 195.5 330.5 193.1C330.5 192.7 330.4 192.2 330.4 191.8C329.9 183.9 329.2 176.1 328.7 170.6C328.7 170.2 328.6 169.7 328.6 169.3C328.5 168.1 328.4 167 328.3 166.1C328.7 166 329.2 166 329.6 165.9C329.7 166.8 329.8 167.9 329.9 169.1C329.9 169.5 330 169.9 330 170.4C330.5 175.9 331.1 183.6 331.7 191.5C331.7 191.9 331.8 192.4 331.8 192.8C331.9 195.2 332 197.7 332.2 200.2Z" fill="#564C54"/>
<path d="M333.999 191.8C333.799 191.9 332.899 192.3 331.699 192.7C331.299 192.8 330.899 192.9 330.399 193C329.999 193.1 329.599 193.1 329.199 193.2C328.399 193.2 327.599 193.2 326.999 192.9C326.199 192.5 325.699 191.8 325.499 190.9C324.999 188.5 323.999 178.3 323.299 171.2C323.299 170.8 323.199 170.3 323.199 169.9C323.099 168.8 322.999 167.7 322.899 166.8C323.299 166.7 323.799 166.7 324.199 166.6C324.299 167.5 324.399 168.5 324.499 169.7C324.499 170.1 324.599 170.5 324.599 171C325.299 178.1 326.299 188.2 326.699 190.6C326.799 191.1 327.099 191.5 327.499 191.7C328.199 192 329.199 192 330.299 191.7C330.699 191.6 331.199 191.5 331.599 191.3C332.399 191.1 332.999 190.8 333.399 190.6C333.699 190.4 334.099 190.6 334.299 190.9C334.499 191.3 334.399 191.6 333.999 191.8Z" fill="#564C54"/>
<path d="M297.599 178.4C297.499 178.7 296.399 182.7 293.899 186.8C292.399 189.3 290.399 191.7 287.799 193.2C287.499 193.4 287.199 193.6 286.899 193.7C285.999 194.1 285.099 194.5 284.199 194.6C284.399 194 284.599 193.4 284.699 192.8C285.199 192.6 285.699 192.4 286.199 192.2C286.699 192 287.099 191.7 287.599 191.4C289.599 190 291.299 188 292.599 185.9C294.999 182 296.099 178 296.199 177.9C296.299 177.5 296.799 177.2 297.199 177.3C297.499 177.5 297.699 178 297.599 178.4Z" fill="#564C54"/>
<path d="M356.4 174.8C356.4 174.9 356.4 174.9 356.4 174.8C355 176.1 353.5 177.3 351.8 178.4C351.7 178.4 351.7 178.5 351.6 178.5C351.1 178.9 350.5 179.2 350 179.5C349.5 179.8 349.1 180 348.6 180.3C348.4 180.4 348.1 180.6 347.9 180.7C347.4 181 346.9 181.2 346.5 181.4C342.6 183.3 338.3 184.9 333.6 186.1C333.2 186.2 332.7 186.3 332.3 186.4C332 186.5 331.7 186.5 331.4 186.6C331 186.7 330.5 186.8 330.1 186.9C329.6 187 329.1 187.1 328.5 187.2C328.1 187.3 327.6 187.4 327.2 187.4C326.9 187.4 326.7 187.5 326.4 187.5C326 187.6 325.5 187.6 325.1 187.7C320.8 188.3 316.3 188.5 311.8 188.3C311.2 188.3 310.6 188.2 309.9 188.2C309 188.1 308 188.1 307.1 188C306.5 187.9 305.9 187.9 305.3 187.8C305.2 187.8 305.1 187.8 305 187.8H304.9C304.4 187.7 303.9 187.7 303.4 187.6C300.7 187.2 298.1 186.6 295.5 185.8C295.2 185.7 295 185.6 294.7 185.6C294.2 185.4 293.6 185.3 293.1 185.1C291.6 184.6 290.2 184.1 288.7 183.4C288.3 183.2 288 183.1 287.6 182.9C287.4 182.8 287.2 182.7 286.9 182.6C286.7 182.5 286.4 182.4 286.2 182.3C286.2 182.3 286.1 182.3 286.1 182.2C283.4 174.8 280.4 148.4 279.6 140.5C279.4 138.9 279.3 137.4 279.2 135.8C278.9 131.5 278.8 127.2 278.9 122.8C278.9 119.4 279 116 279.2 112.6C279.2 112.2 279.2 111.7 279.3 111.3C279.4 109.7 279.5 108.1 279.6 106.5C279.6 106.1 279.6 105.8 279.7 105.4C279.7 105.3 279.7 105.2 279.7 105.1C279.7 105 279.7 105 279.7 104.9C279.8 103.6 279.9 102.3 279.9 101.1C280 98.9 280.2 96.7 280.3 94.4C280.4 93.2 280.5 91.9 280.5 90.7C281 82.8 282.7 76.6 285.5 72.3C286.2 71.2 287 70.3 287.8 69.5C288.4 68.9 289.1 68.4 289.8 68C291.2 67.1 292.8 66.5 294.5 66.2C296.1 66 297.5 65.6 298.8 65.2C299 65.1 299.3 65.1 299.5 65C300.2 64.8 300.9 64.5 301.6 64.3C302.4 64 303 63.7 303.7 63.4C303.8 63.4 303.9 63.3 304 63.3C304.2 63.2 304.3 63.1 304.5 63.1C304.9 62.9 305.4 62.7 305.7 62.4C306.8 61.8 307.6 61.2 308.1 60.9C308.4 60.7 308.6 60.5 308.6 60.5H327.1C327.2 60.7 327.4 60.9 327.5 61.1C327.7 61.4 328 61.7 328.2 62C328.7 62.5 329.2 63 329.7 63.4C330.4 63.9 331.1 64.4 331.8 64.8C332.1 65 332.4 65.1 332.7 65.3C332.9 65.4 333.2 65.5 333.4 65.6C333.7 65.7 333.9 65.8 334.2 65.9C334.8 66.1 335.4 66.3 336 66.5C339.8 67.7 343.7 68.3 346.3 70.5C346.8 70.9 347.2 71.3 347.6 71.8C348.4 72.8 348.9 74.1 349.3 75.7C349.4 76.1 349.4 76.6 349.5 77.2C349.6 81.3 347.9 88.1 347.2 99.3C347 102.9 346.8 107 346.9 111.7C346.9 112.9 347 114.1 347 115.3C347 115.7 347 116 347 116.4C347 117.2 347.1 117.9 347.1 118.7C347.1 119.5 347.2 120.3 347.3 121.1C347.4 122.6 347.6 124.2 347.7 125.8C347.8 127.2 348 128.7 348.2 130.2C348.4 131.7 348.6 133.3 348.8 134.9C349.7 141.3 351.8 154 353.9 164.6C354.2 166.3 354.6 167.9 354.9 169.4C354.9 169.6 355 169.7 355 169.9C355.7 171.8 356 173.4 356.4 174.8Z" fill="#006FF9"/>
<path d="M323.099 104.4C322.899 104.4 322.699 104.3 322.599 104.2L294.799 66.8C294.599 66.5 294.699 66.2 294.899 66C295.199 65.8 295.499 65.9 295.699 66.1L322.799 102.6L334.699 66.9C334.799 66.6 335.099 66.4 335.499 66.5C335.799 66.6 335.999 66.9 335.899 67.3L323.699 104C323.599 104.2 323.399 104.3 323.099 104.4C323.199 104.4 323.199 104.4 323.099 104.4Z" fill="#0045BD"/>
<path d="M321.7 113.7C318.6 113.7 315.2 112.8 311.7 111.2C305.7 108.3 301.3 103.9 301.2 103.9C301 103.7 301 103.5 301.2 103.3C301.4 103.1 301.6 103.1 301.8 103.3C301.8 103.3 306.2 107.7 312.1 110.5C319.9 114.3 326.7 113.7 332.2 108.9C332.4 108.7 332.6 108.8 332.8 109C332.9 109.2 332.9 109.5 332.7 109.6C329.5 112.4 325.9 113.8 321.9 113.8C321.8 113.7 321.8 113.7 321.7 113.7Z" fill="#0045BD"/>
<path d="M332.8 158.9C331.2 158.9 329.5 158.8 327.8 158.5C323.6 157.8 319.2 156.1 314.8 153.7C307.2 149.5 302 144.2 302 144.1C301.8 143.9 301.8 143.7 302 143.5C302.2 143.3 302.4 143.3 302.6 143.5C302.7 143.6 307.8 148.8 315.3 152.9C322.2 156.7 332.4 160.4 342.4 156.2C342.6 156.1 342.8 156.2 342.9 156.5C343 156.7 342.9 157 342.7 157.1C339.5 158.3 336.2 158.9 332.8 158.9Z" fill="#0045BD"/>
<path d="M310.2 52.4C310.2 52.4 311.1 60.2 306.6 57.6C303.2 55.7 305 53.2 301.6 51.1C300.2 50.2 296.2 49 296.5 44.8C296.8 40.7 299.3 39.9 297.2 38.4C295.1 36.9 291.4 33.1 296 28.1C300.6 23.1 294.3 19.5 300.7 16.1C307.1 12.7 310.5 14.9 315.6 11.1C320.7 7.20001 325.8 5.40001 329.8 7.00001C335.4 9.20001 332.2 20.9 328.1 21.9C324 22.9 310.2 52.4 310.2 52.4Z" fill="#21181E"/>
<path d="M326.1 55.9L326.8 60.5C326.3 61 325.8 61.5 325.3 61.9C318 67.8 308.6 63.0999 308.6 63.0999L306.3 47.2L323.7 54.9L326.1 55.9Z" fill="#FF8C64"/>
<path d="M326.1 55.8999L326.8 60.4999C326.3 60.9999 325.8 61.4999 325.3 61.8999C318.1 60.1999 312.2 53.7999 312.2 53.7999L323.8 54.8999L326.1 55.8999Z" fill="#21181E"/>
<path d="M328.9 34.8C328.9 34.8 331.1 31.3 333 34.2C334.9 37.1 334.7 43.5 330.6 43L328.9 34.8Z" fill="#FF6A48"/>
<path d="M329.2 20.1C329.2 20.1 332.4 20.7 331.6 24.4C330.8 28 331 28.7 331.8 30.7C332.6 32.7 331.1 34.7 330.5 34.6C329.9 34.5 321.8 19.7 329.2 20.1Z" fill="#21181E"/>
<path d="M333.3 45.2C333.3 45.2 334.7 54.7 324.8 56.1C315 57.5 307.2 50.7 306.8 50.4L306.4 48.4L304.4 38.1L303.3 32.6C303.3 32.6 300.6 22.8 309.8 19.7C316.5 17.4 323.2 17.6 327 20.7C327.1 20.8 327.2 20.9 327.4 21C328.6 22.1 329.5 23.6 329.9 25.4L331.6 35.3L332 37.7L333.3 45.2Z" fill="#FF8C64"/>
<path d="M312.3 30.5C313 31.5 314.3 31.9001 315.4 31.2001C316 30.8001 316.7 30.4 317.5 30.1C318.6 29.7 319.2 28.4 318.7 27.3C318.7 27.4 314 27.6 312.3 30.5Z" fill="#21181E"/>
<path d="M330.1 27.9C329.8 29.1 328.5 29.8 327.3 29.4C326.6 29.2 325.8 29 325 29C323.8 28.9 322.9 27.9 323.1 26.7C323.1 26.7 327.7 25.6 330.1 27.9Z" fill="#21181E"/>
<path d="M327.3 21.1C325.7 20.8 324.6 21.4 322.4 22.8C319.1 24.8 315 24 311.3 22.7C307.6 21.4 305.9 24.2 307.3 25.6C308.7 27 308.8 28.4 307.8 30.6C306.8 32.8 310.7 33.3 308.8 35.2C308 36 308.2 37 308.7 37.9C309.2 38.9 308.5 40.1 307.4 40C306.2 39.9 304.4 38.1 304.4 38.1L303.3 32.6C303.3 32.6 300.6 22.8 309.8 19.7C316.5 17.4 323.2 17.6 327 20.7C327.1 20.8 327.2 20.9 327.3 21.1Z" fill="#21181E"/>
<path d="M318.901 38.4C319.001 39.1 317.701 39.9 315.901 40.1C314.101 40.4 312.601 40 312.501 39.3C312.401 38.6 313.701 37.8 315.501 37.6C317.301 37.3 318.801 37.7 318.901 38.4Z" fill="#FF6A48"/>
<g opacity="0.8">
<path d="M332 37.7C331.8 37.8 331.5 37.7999 331.2 37.7999C329.4 38.0999 327.9 37.7 327.8 37C327.7 36.3 329 35.4999 330.8 35.2999C331 35.2999 331.3 35.2 331.5 35.2L332 37.7Z" fill="#FF6A48"/>
</g>
<path d="M318.9 34.5C319 35.4 318.7 36.3 318.2 36.4C317.7 36.5 317.1 35.8 317 34.8C316.9 33.9 317.2 33 317.7 32.9C318.2 32.8 318.8 33.5 318.9 34.5Z" fill="#21181E"/>
<path d="M328.3 33.2C328.4 34.1 328.1 35 327.6 35.1C327.1 35.2 326.5 34.5 326.4 33.5C326.3 32.6 326.6 31.7 327.1 31.6C327.6 31.5 328.1 32.2 328.3 33.2Z" fill="#21181E"/>
<path d="M323.4 38.7C325.7 38.4 326.3 36.6 326.3 36.6C326.3 36.5 326.3 36.4 326.2 36.3C324.1 33.3 322.1 30.1 322 30.1C321.9 29.9 321.6 29.9 321.5 30C321.3 30.1 321.3 30.4 321.4 30.5C321.4 30.5 323.4 33.5 325.4 36.5C325.2 36.9 324.7 37.7 323.2 37.9C323 37.9 322.8 38.1 322.9 38.3C323 38.6 323.2 38.7 323.4 38.7Z" fill="#21181E"/>
<path d="M325.7 43.1001C326.8 42.9001 328 42.4001 329.1 41.4001C329.3 41.2001 329.3 41.0001 329.1 40.8001C328.9 40.6001 328.7 40.6001 328.5 40.8001C324.6 44.5001 319.4 40.4001 319.4 40.3001C319.2 40.2001 319 40.2001 318.8 40.4001C318.7 40.6001 318.7 40.8001 318.9 41.0001C318.9 41.0001 322.2 43.6001 325.7 43.1001Z" fill="#21181E"/>
<path d="M309.3 46.1C309.3 46.2 308.4 49.3 306.8 50.4L306.4 48.4C306.4 48.4 307.9 47.9 309.3 46.1Z" fill="#21181E"/>
<path d="M306.6 39.8C306.6 39.8 302.1 35.2 299.9 39.6C298.1 43.2 303.6 51.2 307.8 47.6L306.6 39.8Z" fill="#FF8C64"/>
<path d="M307 46.2C307.3 46.1 307.4 45.9 307.3 45.7C306.2 41.4 302.3 40.5 302.2 40.4C302 40.3 301.8 40.5 301.7 40.7C301.6 40.9 301.8 41.1 302 41.2C302.1 41.2 305.6 42.1 306.5 45.9C306.6 46.1 306.8 46.2 307 46.2Z" fill="#21181E"/>
<path d="M303 44.3C303.1 44.3 303.2 44.2 303.2 44.2C303.5 43.9 304.4 43.1 305.1 43.1C305.3 43.1 305.5 43 305.5 42.8C305.5 42.6 305.4 42.4 305.2 42.4C304 42.3 302.7 43.6 302.6 43.7C302.5 43.9 302.5 44.1 302.6 44.3C302.8 44.3 302.9 44.3 303 44.3Z" fill="#21181E"/>
<path d="M300.399 64.7L322.199 96.6L331.999 64.7C331.999 64.7 330.899 60 326.799 60C324.299 62.5 321.599 63.9 318.799 64.7C318.799 64.7 310.799 63 307.999 58.8C307.999 58.8 302.199 59.9 300.399 64.7Z" fill="white"/>
<path d="M309.8 78C309.7 78 309.5 78 309.4 77.9C309.1 77.7 309.1 77.3 309.3 77.1L318.3 65.2C318.4 65.1 318.6 65 318.7 65C318.9 65 319 65 319.2 65.2L328.8 74.4C329 74.6 329.1 75 328.8 75.3C328.6 75.5 328.2 75.6 327.9 75.3L318.8 66.6L310.2 78C310.2 77.9 310 78 309.8 78Z" fill="#C9DAF4"/>
<path d="M314.999 71.5L319.699 77.1L323.999 71.3L318.899 66.4L314.999 71.5Z" fill="#21181E"/>
<path d="M317.599 74.6001L316.499 88.4001L322.199 96.6001L325.499 85.7001L321.399 74.9001L317.599 74.6001Z" fill="#21181E"/>
<path d="M233.3 66.4C233.3 66.4 228 73.5 221.5 71.8C216.3 70.5 214.3 63.8 213.7 61.3C213.6 60.7 213.5 60.3 213.5 60.3C213.5 60.3 213.1 60.2 212.6 59.9C211.4 59.3 209.4 57.9 209.4 56C209.3 53.3 214.4 54.1 214.4 54.1C214.4 54.1 213.2 50.9 214.5 49.8C215.8 48.7 218.9 49.9 218.9 49.9C218.9 49.9 216.8 46.1 218.8 44.9C221.9 43 223.6 47.8 223.8 48.1C223.7 47.7 220.2 33 222.9 33.4C225.2 33.8 229 46 230 49.4C230.2 49.9 230.2 50.2 230.2 50.2C230.2 50.2 230.4 50.2 230.7 50.1C232.2 49.9 236.5 49.8 237.6 52.6C239 56.1 233.3 66.4 233.3 66.4Z" fill="#FF8C64"/>
<path d="M219.2 57.4C219.9 58.5 220.3 59.7 220.2 60.7C220.1 61.3 219.8 61.7 219.3 62C219 62.2 218.5 62.2 217.9 62.2C216.6 62.2 214.8 61.7 213.7 61.3C213.6 60.7 213.5 60.3 213.5 60.3C213.5 60.3 213.1 60.2 212.6 59.9C212.7 59.9 212.8 59.9 212.9 59.9C214.7 60.6 217.8 61.5 218.8 61.1C218.9 61 219.1 60.9 219.1 60.6C219.2 59.6 218.2 57.6 217 56.5C216.8 56.3 216.8 56 216.9 55.8C217.1 55.6 217.3 55.5 217.6 55.6C218.7 56.2 221.9 57.6 223.3 57C223.5 56.9 223.5 56.8 223.5 56.7C223.5 56.5 223.4 56.1 223.1 55.7C222.6 54.9 221.7 53.9 221 53.3C220.9 53.2 220.9 53.1 220.8 53C220.8 52.8 220.8 52.7 220.9 52.5C221.1 52.3 221.4 52.3 221.6 52.5C221.9 52.8 223 53.8 223.8 54.9C224.1 55.3 224.3 55.7 224.4 56.1C224.5 56.3 224.5 56.6 224.5 56.8C224.5 57.1 224.3 57.6 223.7 57.8C222.5 58.5 220.7 58 219.2 57.4Z" fill="#FF6A48"/>
<path d="M226.4 52.2C226.2 52.3 226.1 52.5 226.1 52.7C226.1 53.4 226.1 54 225.9 54.3C225.7 54.6 225.6 54.6 225.4 54.7C225.2 54.7 224.9 54.6 224.5 54.5C223.6 54.1 222.5 53.4 221.5 52.6C221.5 52.7 221.6 52.8 221.7 52.9C222.4 53.5 223.3 54.5 223.8 55.3C223.9 55.4 224 55.4 224.1 55.4C224.4 55.5 224.8 55.6 225.1 55.7C225.2 55.7 225.4 55.7 225.5 55.7C226.1 55.6 226.5 55.3 226.8 54.8C227.1 54.2 227.2 53.5 227.2 52.6C227.1 52.2 226.7 52 226.4 52.2Z" fill="#FF6A48"/>
<path d="M234.4 56.8999C234.3 56.8999 232.3 57.3999 230.4 57.2999C229.3 57.2999 228.2 57.0999 227.5 56.4999C226.9 56.0999 226.5 55.4999 226.4 54.6999C226 51.9999 228.5 50.1999 230.1 49.2999C230.3 49.7999 230.3 50.0999 230.3 50.0999C230.3 50.0999 230.5 50.0999 230.8 49.9999C229.5 50.6999 227.1 52.2999 227.4 54.4999C227.5 54.9999 227.7 55.2999 228.1 55.5999C229.6 56.5999 233.1 56.0999 234.3 55.7999C234.6 55.6999 234.9 55.8999 234.9 56.1999C234.8 56.4999 234.7 56.7999 234.4 56.8999Z" fill="#FF6A48"/>
<path d="M224.8 68C224.6 68 224.5 67.9 224.4 67.7C224.3 67.5 224.4 67.1 224.6 67C225.9 66.3 226.8 65.3 227.1 64C227.9 60.7 225.1 56.7 225 56.6C224.8 56.4 224.9 56.1 225.1 55.9C225.3 55.7 225.6 55.8 225.8 56C225.9 56.2 228.9 60.5 228 64.2C227.6 65.8 226.6 67 225 67.9C225 68 224.9 68 224.8 68Z" fill="#FF6A48"/>
<path d="M303.9 84.4L303.2 85.5C303 85.8 302.8 86.1 302.6 86.4C302.4 86.7 302.2 87 302 87.2C301.8 87.5 301.6 87.8 301.4 88C300.6 89.1 299.8 90.1 299 91.2C297.4 93.3 295.7 95.2 294 97.1C290.5 100.9 286.7 104.4 282.5 107.6L280.9 108.8C280.4 109.2 279.8 109.6 279.3 110C278.8 110.4 278.2 110.8 277.7 111.1L276.1 112.2C273.9 113.6 271.6 115 269.3 116.2C267 117.5 264.5 118.6 262.1 119.6C259.6 120.6 257.1 121.5 254.5 122.3C253.9 122.5 253.2 122.7 252.6 122.9L250.6 123.4L249.6 123.6L249.4 123.7L249.1 123.8L248.8 123.9C248.4 124 247.9 124.1 247.5 124.1C245.7 124.3 243.8 124.2 242 123.8C241.6 123.7 241.1 123.6 240.7 123.5C240.5 123.4 240.3 123.4 240.1 123.3C239.9 123.2 239.7 123.2 239.5 123.1C239.1 123 238.7 122.8 238.3 122.6C238 122.4 237.6 122.3 237.3 122.1C237.1 122 236.9 121.9 236.8 121.8L236.3 121.5C236 121.3 235.7 121.1 235.4 120.9C235.1 120.7 234.9 120.5 234.6 120.3C234.5 120.2 234.3 120.1 234.2 120L233.8 119.7C231.9 118.1 230.6 116.6 229.5 115.1C228.4 113.6 227.6 112.3 226.8 110.9C226.1 109.6 225.4 108.2 224.8 107C223.6 104.4 222.7 101.9 221.9 99.5C221.5 98.3 221.1 97.1 220.8 95.8C220.4 94.6 220.1 93.4 219.8 92.2C219.2 89.8 218.7 87.4 218.2 85C217.7 82.6 217.3 80.2 216.9 77.8C216.7 76.6 216.6 75.4 216.4 74.2L216.2 72.4L216.1 71.5L216 70.5L236.3 67.3L237.1 70.4C237.4 71.5 237.7 72.5 237.9 73.6C238.5 75.7 239.1 77.8 239.7 79.9C240.3 82 240.9 84 241.6 86C242.3 88 243 90 243.7 91.8C244.4 93.7 245.2 95.5 246 97.1C246.4 97.9 246.8 98.6 247.2 99.3C247.6 99.9 248 100.5 248.3 100.9C248.6 101.3 248.8 101.5 248.7 101.3L248.6 101.2C248.6 101.2 248.5 101.1 248.4 101.1H248.3L248.2 101C248.1 101 248 100.9 247.9 100.9C247.8 100.8 247.7 100.8 247.6 100.7L247.4 100.6C247.3 100.6 247.3 100.5 247.2 100.5C247.1 100.5 246.9 100.4 246.7 100.4C246 100.3 245.3 100.2 244.6 100.3C244.4 100.3 244.3 100.3 244.1 100.4H244H243.9H244.1L244.8 100.2L246.2 99.8C246.7 99.7001 247.1 99.5 247.6 99.4C249.4 98.9 251.2 98.2 253 97.5C254.8 96.7 256.6 96 258.3 95.1C259.2 94.7 260 94.2 260.9 93.7C261.3 93.5 261.7 93.2 262.2 93C262.6 92.7 263.1 92.5 263.5 92.2C265.2 91.2 266.8 90.1 268.5 88.9C269.3 88.3 270.1 87.7 270.9 87.1C271.7 86.5 272.5 85.9 273.3 85.2C274.9 83.9 276.3 82.6 277.8 81.2C279.3 79.8 280.7 78.4 282 76.9C282.7 76.2 283.3 75.4 284 74.7C284.2 74.5 284.3 74.3 284.5 74.1C284.7 73.9 284.8 73.7 285 73.6L285.4 73.1L285.6 72.9L285.7 72.8L303.9 84.4Z" fill="#006FF9"/>
<path d="M226.7 73.1C226.4 73.8 226.7 74.7 227.5 75C228.2 75.3 229.1 75 229.4 74.2C229.7 73.5 229.4 72.6 228.6 72.3C227.9 72.1 227 72.4 226.7 73.1Z" fill="#0045BD"/>
<path d="M241.7 108.6C241.6 108.6 241.4 108.5 241.3 108.4C241.1 108.2 241 107.8 241.3 107.5C244.3 104.1 246.7 99.3 246.7 99.2C246.8 98.9 247.2 98.8 247.5 98.9C247.8 99 247.9 99.4 247.8 99.7C247.7 99.9 245.3 104.8 242.2 108.3C242.1 108.5 241.9 108.6 241.7 108.6Z" fill="#0045BD"/>
<path d="M247.2 106.5C246.9 106.5 246.6 106.2 246.6 105.9C246.6 105.9 246.699 101.5 246.399 100.1C246.299 99.8 246.599 99.5 246.899 99.4C247.199 99.3 247.5 99.6 247.6 99.9C247.9 101.4 247.8 105.8 247.8 105.9C247.8 106.3 247.6 106.5 247.2 106.5Z" fill="#0045BD"/>
<path d="M217.6 81.6C217.3 81.6 217.1 81.4 217 81.2C216.9 80.9 217.1 80.5 217.4 80.4C224.4 78.1 238.6 76.1 238.7 76.1C239 76.1 239.3 76.3 239.4 76.6C239.4 76.9 239.2 77.2 238.9 77.3C238.8 77.3 224.7 79.3 217.8 81.6C217.8 81.6 217.7 81.6 217.6 81.6Z" fill="#0045BD"/>
<path d="M224.1 79.9C223.8 79.9 223.6 79.7 223.5 79.4L221.5 70C221.4 69.7 221.6 69.3 222 69.3C222.3 69.2 222.7 69.4 222.7 69.8L224.7 79.2C224.8 79.5 224.6 79.9 224.2 79.9H224.1Z" fill="#0045BD"/>
<path d="M279.9 110.4C279.7 110.4 279.5 110.3 279.4 110.1C279.2 109.8 279.3 109.4 279.6 109.3C279.7 109.2 288.8 103.3 292.8 98.9C293 98.7 293.4 98.6 293.7 98.9C293.9 99.1 294 99.5 293.7 99.8C289.6 104.3 280.7 110.1 280.3 110.4C280.1 110.4 280 110.4 279.9 110.4Z" fill="#0045BD"/>
<path d="M289.2 103.7C288.9 103.7 288.6 103.5 288.6 103.2C288.6 102.9 288.8 102.6 289.1 102.5L294 101.9C294.3 101.9 294.6 102.1 294.7 102.4C294.7 102.7 294.5 103 294.2 103.1L289.2 103.7Z" fill="#0045BD"/>
<path d="M551.701 34.9001C551.701 34.9001 558.601 23.3001 578.201 30.3001C597.801 37.3001 584.701 63.1001 589.801 75.3001C594.901 87.5001 589.701 88.0001 579.601 88.8001C569.501 89.6001 549.301 90.2001 544.601 84.7001C539.701 78.9001 545.101 50.7001 551.701 34.9001Z" fill="#21181E"/>
<path d="M482 121.2C482 121.2 479.5 129.1 473.4 129.7C468.4 130.2 464.5 124.9 463.2 122.9C462.9 122.4 462.7 122.1 462.7 122.1C462.7 122.1 462.3 122.1 461.8 122C460.5 121.8 458.4 121.2 457.7 119.6C456.8 117.2 461.5 116.4 461.5 116.4C461.5 116.4 459.5 114 460.3 112.6C461.1 111.2 464.2 111.3 464.2 111.3C464.2 111.3 461.2 108.7 462.5 106.9C464.6 104.3 467.6 107.9 467.9 108.1C467.7 107.8 459.9 95.9001 462.4 95.5001C464.6 95.1001 471.8 104.7 473.7 107.3C474 107.7 474.2 108 474.2 108C474.2 108 474.3 107.9 474.6 107.8C475.8 107.2 479.6 105.7 481.5 107.8C483.8 110.3 482 121.2 482 121.2Z" fill="#FF8C64"/>
<path d="M466.801 117.8C467.701 118.5 468.501 119.5 468.701 120.3C468.801 120.9 468.701 121.3 468.301 121.7C468.001 122 467.601 122.2 467.201 122.3C466.001 122.7 464.301 122.8 463.201 122.8C462.901 122.3 462.701 122 462.701 122C462.701 122 462.301 122 461.801 121.9C461.901 121.9 462.001 121.8 462.101 121.8C463.901 121.8 467.001 121.6 467.701 120.9C467.801 120.8 467.901 120.7 467.801 120.4C467.601 119.5 466.101 118 464.601 117.5C464.401 117.4 464.201 117.2 464.301 116.9C464.401 116.7 464.601 116.5 464.801 116.6C466.001 116.8 469.201 117 470.201 116C470.301 115.9 470.301 115.8 470.301 115.7C470.301 115.5 470.001 115.2 469.701 114.9C469.001 114.4 467.901 113.8 467.001 113.5C466.901 113.5 466.801 113.4 466.801 113.3C466.701 113.2 466.701 113 466.801 112.9C466.901 112.7 467.201 112.5 467.401 112.6C467.801 112.7 469.101 113.3 470.101 114C470.501 114.3 470.801 114.6 471.001 114.9C471.101 115.1 471.201 115.3 471.301 115.5C471.401 115.8 471.301 116.2 470.901 116.7C470.101 117.7 468.301 117.8 466.801 117.8Z" fill="#FF6A48"/>
<path d="M471.5 110.9C471.4 111 471.3 111.2 471.4 111.4C471.6 112 471.8 112.5 471.7 112.9C471.7 113.2 471.5 113.3 471.4 113.4C471.2 113.5 470.9 113.5 470.6 113.5C469.7 113.5 468.5 113.2 467.4 112.8C467.5 112.9 467.5 112.9 467.6 113C468.4 113.3 469.6 113.9 470.3 114.4C470.4 114.4 470.5 114.4 470.6 114.4C470.9 114.4 471.3 114.4 471.5 114.3C471.6 114.3 471.7 114.2 471.8 114.2C472.3 114 472.6 113.6 472.6 113C472.7 112.4 472.5 111.7 472.2 111C472.1 110.7 471.7 110.6 471.5 110.9Z" fill="#FF6A48"/>
<path d="M480 112.5C479.9 112.6 478.3 113.6 476.6 114.2C475.6 114.5 474.6 114.7 473.8 114.5C473.1 114.3 472.6 113.9 472.2 113.3C471 111.1 472.6 108.6 473.7 107.4C474 107.8 474.2 108.1 474.2 108.1C474.2 108.1 474.3 108 474.6 107.9C473.7 108.9 472 111.1 473 112.9C473.2 113.3 473.5 113.5 474 113.6C475.6 114 478.5 112.4 479.5 111.8C479.7 111.7 480 111.7 480.2 111.9C480.3 112 480.2 112.3 480 112.5Z" fill="#FF6A48"/>
<path d="M475.101 125.3C474.901 125.4 474.801 125.3 474.601 125.2C474.401 125 474.401 124.7 474.601 124.5C475.501 123.4 476.001 122.3 475.801 121.1C475.401 118 471.701 115.3 471.601 115.3C471.401 115.1 471.301 114.9 471.501 114.6C471.701 114.4 471.901 114.3 472.201 114.5C472.401 114.6 476.301 117.4 476.801 121C477.001 122.5 476.501 123.9 475.301 125.2C475.301 125.2 475.201 125.2 475.101 125.3Z" fill="#FF6A48"/>
<path d="M534.601 86.1001L529.801 98.4001C529.101 100.5 528.301 102.5 527.601 104.5C526.901 106.5 526.101 108.6 525.401 110.6C524.601 112.6 523.901 114.6 523.101 116.6C522.301 118.6 521.501 120.5 520.701 122.4C519.901 124.3 519.101 126.2 518.301 127.8C517.901 128.6 517.501 129.4 517.201 130L517.001 130.4L516.901 130.6C516.901 130.6 516.901 130.6 516.901 130.7C516.901 130.8 516.901 130.8 516.901 130.9C516.901 131 516.901 131 516.901 131.1C516.901 131.2 516.801 131.3 516.501 131.4C516.001 131.6 514.901 131.8 513.501 131.7C512.101 131.6 510.501 131.4 508.801 130.9C507.101 130.5 505.301 129.9 503.501 129.2C499.901 127.8 496.201 126.1 492.501 124.1C488.801 122.2 486.101 120.6 482.601 118.4C481.501 123.7 477.701 128 472.301 130C475.801 133.2 479.401 136.1 483.201 138.9C487.101 141.7 491.101 144.3 495.501 146.6C497.701 147.8 500.101 148.9 502.601 149.8C505.101 150.7 507.801 151.6 510.801 152.1C512.301 152.4 513.901 152.5 515.601 152.6C517.301 152.6 519.101 152.5 521.001 152.1C522.901 151.7 524.901 151.1 526.801 150.1C528.701 149.2 530.601 147.9 532.101 146.4C532.901 145.7 533.601 144.9 534.301 144.1L534.801 143.5L535.201 143C535.301 142.8 535.401 142.7 535.601 142.5C535.701 142.3 535.801 142.2 535.901 142C536.801 140.7 537.501 139.6 538.101 138.4C539.401 136.2 540.501 134 541.601 131.9C542.701 129.8 543.601 127.7 544.601 125.6C545.601 123.5 546.501 121.4 547.401 119.3C548.301 117.2 549.201 115.1 550.001 113C550.801 110.9 551.701 108.8 552.501 106.7C553.301 104.6 554.101 102.5 554.901 100.4L556.001 97.2001L556.601 95.6001C556.801 95.1001 557.001 94.5001 557.201 94.0001L534.601 86.1001Z" fill="#21181E"/>
<path d="M478.4 135.2C478.1 135.2 477.9 135 477.8 134.7C477.7 134.4 477.9 134 478.2 133.9C486.8 131.6 486.8 122.2 486.8 122.1C486.8 121.8 487.1 121.5 487.4 121.5C487.7 121.5 488 121.8 488 122.1C488 122.2 488 132.5 478.5 135.1C478.5 135.2 478.5 135.2 478.4 135.2Z" fill="#564C54"/>
<path d="M482.401 133.2C482.301 133.2 482.101 133.2 482.001 133.1L476.401 128.5C476.101 128.3 476.101 127.9 476.301 127.6C476.501 127.3 476.901 127.3 477.201 127.5L482.801 132.1C483.101 132.3 483.101 132.7 482.901 133C482.801 133.2 482.601 133.2 482.401 133.2Z" fill="#564C54"/>
<path d="M484.001 125.1C484.001 125.7 483.501 126.2 482.901 126.2C482.301 126.2 481.801 125.7 481.801 125.1C481.801 124.5 482.301 124 482.901 124C483.601 124.1 484.001 124.6 484.001 125.1Z" fill="#564C54"/>
<path d="M521.4 137.1C521.2 137.1 521 137 520.9 136.9C520.9 136.9 518.5 133.8 516.5 132.3C516.2 132.1 516.2 131.7 516.4 131.4C516.6 131.1 517 131.1 517.3 131.3C519.5 132.9 521.9 136 522 136.1C522.2 136.4 522.1 136.8 521.9 137C521.7 137.1 521.6 137.1 521.4 137.1Z" fill="#564C54"/>
<path d="M517.3 137.7H517.2C516.9 137.6 516.7 137.3 516.7 137C516.7 137 517.3 134.4 516.7 132.4C516.6 132.1 516.8 131.7 517.1 131.6C517.4 131.5 517.8 131.7 517.9 132C518.5 134.3 517.9 137.1 517.9 137.2C517.8 137.5 517.5 137.7 517.3 137.7Z" fill="#564C54"/>
<path d="M536.801 416C576.565 416 608.801 413.09 608.801 409.5C608.801 405.91 576.565 403 536.801 403C497.036 403 464.801 405.91 464.801 409.5C464.801 413.09 497.036 416 536.801 416Z" fill="#C9DAF4"/>
<path d="M491.4 396.7C493.6 393.1 513.6 374 513.6 374C513.6 374 517.7 377.2 517.5 380.7C517.3 384 517.5 401.7 517.6 405.3H515.2L513.7 395.5C513.7 395.5 508.2 404.3 504.1 407.3C500 410.3 486 409.8 482.6 409.3C479.1 408.9 489.2 400.3 491.4 396.7Z" fill="#006FF9"/>
<path d="M515.9 365.3L513.3 373.2C513.3 373.2 514.4 375.8 513.3 379.6C512.2 383.4 507.9 389.4 503.9 393.9C500.4 397.8 492.9 401.6 490.7 400.6C488.5 399.6 494.9 391.9 496.9 387.9C498.8 383.9 499.6 380 500.2 376.6C500.9 373.1 501.3 364.6 501.3 364.6L515.9 365.3Z" fill="#FF8C64"/>
<path d="M569.9 372.3C569.9 372.3 565.4 374.1 565.2 380.5C565 386.9 565.1 405.3 565.1 405.3H567.4L568.7 397.5C568.7 397.5 569.5 403.8 572.7 407.8C575.9 411.8 582.8 412 587.3 411.3C591.8 410.6 588.5 402.2 586.6 397.5C584.8 392.8 580.9 381.6 580.9 381.6L569.9 372.3Z" fill="#006FF9"/>
<path d="M571.101 363.2C571.101 363.2 571.201 371 569.901 372.3C568.601 373.6 566.701 378 568.101 383.4C569.501 388.8 570.301 396.6 573.501 400C576.701 403.4 584.801 403.5 585.501 400.8C586.201 398.1 581.401 388.2 581.101 383C580.901 377.9 580.001 364 580.001 364L571.101 363.2Z" fill="#FF8C64"/>
<path d="M522.901 203C534.201 209.5 561.601 212.9 579.401 205.8C585.901 203.2 587.101 201.6 586.601 189.8C586.601 189.4 586.601 188.9 586.501 188.5C586.501 187.6 586.401 186.7 586.301 185.7C586.301 185.3 586.201 184.8 586.201 184.4C586.101 182.8 585.901 181.1 585.701 179.6C585.701 179.2 585.601 178.8 585.601 178.3C585.201 174.9 584.501 171.8 583.901 169.4C583.801 169 583.701 168.6 583.601 168.2C583.001 165.9 582.501 164.4 582.501 164.4C579.601 164.9 576.701 165.1 573.701 165.3C573.301 165.3 572.901 165.3 572.401 165.3C557.001 165.7 541.201 162.2 534.001 160.3C533.601 160.2 533.201 160.1 532.801 160C530.901 159.5 529.801 159.2 529.801 159.2C529.801 159.2 529.101 160.4 528.201 162.3C528.001 162.7 527.801 163 527.701 163.4C526.201 166.6 524.301 171.2 523.201 176C523.201 176.1 523.201 176.1 523.201 176.2C523.101 176.6 523.001 177 522.901 177.5C522.901 177.6 522.901 177.7 522.801 177.8C522.101 181.3 521.401 185 520.901 188.5C520.801 189 520.801 189.4 520.701 189.8C520.001 197.5 519.901 201.3 522.901 203Z" fill="#FF4231"/>
<path d="M522.9 177.8C523 177.7 523 177.8 522.9 177.8C525.3 176.5 527.3 174.6 529.1 172.1C529.3 171.8 529.6 171.4 529.8 171C531.6 168.2 533 164.6 534.1 160.4C533.7 160.3 533.3 160.2 532.9 160.1C531.8 164.3 530.4 167.7 528.7 170.5C528.5 170.9 528.2 171.2 528 171.6C526.6 173.5 525.1 175.1 523.4 176.2C523.4 176.3 523.4 176.3 523.4 176.4C523.3 176.8 523.2 177.2 523.1 177.7C523 177.6 523 177.7 522.9 177.8Z" fill="#B81A2A"/>
<path d="M572.5 165.4C573 169.8 574 173.6 575.4 176.6C575.6 177 575.8 177.4 576 177.8C577.2 180 578.7 181.7 580.4 183.1C582.5 184.8 584.7 185.5 586.4 185.8C586.4 185.4 586.3 184.9 586.3 184.5C584.8 184.2 582.9 183.5 581.2 182.1C579.7 180.9 578.4 179.4 577.4 177.6C577.2 177.2 577 176.8 576.8 176.4C575.3 173.4 574.3 169.8 573.8 165.4C573.4 165.4 572.9 165.4 572.5 165.4Z" fill="#B81A2A"/>
<path d="M527.801 163.5C528.701 163.9 529.601 164.3 530.601 164.7C531.001 164.9 531.401 165 531.801 165.2C537.601 167.5 545.301 169.8 553.501 170.7C553.801 170.7 554.101 170.8 554.401 170.8C561.901 171.5 569.501 171.2 575.701 170.6C576.101 170.6 576.601 170.5 577.001 170.5C579.601 170.2 582.001 169.9 584.001 169.6C583.901 169.2 583.801 168.8 583.701 168.4C581.701 168.7 579.201 169 576.501 169.3C576.101 169.3 575.601 169.4 575.201 169.4C568.801 170 561.101 170.3 553.501 169.5C545.501 168.7 538.001 166.4 532.301 164.2C531.901 164 531.501 163.9 531.101 163.7C530.101 163.3 529.101 162.9 528.201 162.5C528.101 162.7 527.901 163.1 527.801 163.5Z" fill="#B81A2A"/>
<path d="M527.001 335.4C523.501 348.1 519.701 361.9 516.901 372H499.101L508.801 280.9L509.001 279.4L509.401 275.9C510.101 243.2 514.301 212.3 521.101 188.4L551.501 202.5C550.001 238.5 539.601 257.4 531.501 281.2C531.501 281.3 536.501 303.4 527.001 335.4Z" fill="#FF4231"/>
<path d="M500.201 367.8C499.901 367.8 499.601 367.5 499.601 367.2C499.601 366.9 499.901 366.6 500.201 366.6L517.801 366.4C518.101 366.4 518.401 366.7 518.401 367C518.401 367.3 518.101 367.6 517.801 367.6L500.201 367.8Z" fill="#B81A2A"/>
<path d="M508.801 280.9C510.101 281.1 511.401 281.3 512.801 281.3C514.301 281.3 515.801 281.1 517.301 280.8C517.701 280.7 518.001 280.3 517.901 279.9C517.801 279.5 517.401 279.2 517.001 279.3C514.201 280 511.401 279.9 509.001 279.4L508.801 280.9Z" fill="#B81A2A"/>
<path d="M524 333.2C521.6 343.1 518.3 356.1 515.5 367H514.2C517 356.1 520.3 343 522.8 332.9C527.8 312.3 526.2 279.4 526.2 279.1C526.2 279 526.2 278.9 526.3 278.8C543.4 244.9 545.9 211.2 546 210.9C546 210.6 546.3 210.3 546.7 210.3C547 210.3 547.3 210.6 547.3 211C547.3 211.3 544.7 245.2 527.6 279.2C527.6 281.8 528.9 313.2 524 333.2Z" fill="#B81A2A"/>
<path d="M586.3 280.9C586.2 282.7 586.2 284.5 586.1 286.3L584.7 372H567.8C565.8 360.1 562.9 342.4 560 325.3C554.9 294.9 560.3 283.3 560.3 283.3C560.3 283.3 553.7 223.4 553.2 207.8L586.7 189.9C586.7 189.9 594.5 216.8 586.3 279.3C586.3 279.8 586.3 280.3 586.3 280.9Z" fill="#FF4231"/>
<path d="M562.6 311.8C563.3 316.7 567.6 346.4 570.6 367H569.3C566.3 346.4 561.9 317 561.2 312.1C559.3 299.5 563.2 283.6 563.6 282L554.9 210.5C554.9 210.1 555.1 209.7 555.5 209.7C555.9 209.7 556.3 209.9 556.3 210.3L565 281.9C565 282 565 282.1 565 282.2C564.9 282.2 560.7 298.9 562.6 311.8Z" fill="#B81A2A"/>
<path d="M584.2 367.1H567.3C567 367.1 566.7 366.8 566.7 366.5C566.7 366.2 567 365.9 567.3 365.9H584.2C584.5 365.9 584.8 366.2 584.8 366.5C584.9 366.8 584.6 367.1 584.2 367.1Z" fill="#B81A2A"/>
<path d="M575 281.4C576.5 281.8 578 281.9 579.5 281.9C582 281.9 584.3 281.5 586.3 280.9C586.3 280.4 586.3 279.8 586.3 279.3C583.3 280.2 579.3 280.9 575.3 279.9C574.9 279.8 574.5 280 574.4 280.5C574.3 280.9 574.6 281.3 575 281.4Z" fill="#B81A2A"/>
<path d="M550.2 203.7C550.2 204 549.8 204.3 549.5 204.3C549.2 204.3 548.9 203.9 548.9 203.6C549.2 201.2 549.5 198.8 549.7 196.4C549.7 196 549.8 195.5 549.8 195.1C550.6 187.2 551.3 179.4 551.7 173.9C551.7 173.5 551.8 173 551.8 172.6C551.9 171.4 552 170.3 552 169.4C552.4 169.4 552.8 169.4 553.3 169.4C553.2 170.3 553.1 171.4 553.1 172.6C553.1 173 553 173.4 553 173.9C552.6 179.3 551.9 187.1 551.1 194.9C551.1 195.3 551 195.8 551 196.2C550.8 198.7 550.5 201.2 550.2 203.7Z" fill="#B81A2A"/>
<path d="M553.4 195.7C553.2 195.8 552.2 196 551.1 196.2C550.7 196.3 550.3 196.3 549.8 196.3C549.4 196.3 549 196.3 548.6 196.3C547.8 196.2 547.1 196 546.6 195.6C545.9 195.1 545.5 194.3 545.5 193.4C545.5 190.9 546.2 180.8 546.7 173.6C546.7 173.2 546.8 172.7 546.8 172.3C546.9 171.2 547 170.1 547 169.2C547.4 169.2 547.8 169.2 548.3 169.3C548.2 170.2 548.1 171.2 548.1 172.4C548.1 172.8 548 173.2 548 173.7C547.5 180.8 546.7 190.9 546.8 193.3C546.8 193.9 547 194.2 547.4 194.5C548 194.9 549 195 550 195C550.4 195 550.9 194.9 551.3 194.9C552.1 194.8 552.7 194.6 553.1 194.5C553.4 194.4 553.8 194.6 553.9 194.9C553.9 195.3 553.7 195.6 553.4 195.7Z" fill="#B81A2A"/>
<path d="M581.101 159.2L577.201 175.6C567.501 174.8 555.901 173.4 547.201 168.9C547.201 168.9 535.601 172.8 529.801 171L534.101 159.2H581.101Z" fill="white"/>
<path d="M523.801 171.4C535.001 171.3 541.801 169.9 547.901 164.8C559.401 176.7 587.801 177.2 587.801 177.2C585.001 168 584.001 151.8 584.001 151.8C584.501 148.4 584.501 144.8 585.401 141.2C588.201 133.1 591.501 127.3 594.401 118.9C594.601 118.4 594.801 117.8 595.001 117.3C595.101 116.9 595.301 116.6 595.401 116.2C596.401 113.6 597.401 111 598.501 108.5C603.201 97.5 604.001 85.2 592.701 81.4C591.901 81.1 591.101 80.9 590.301 80.6C585.001 78.9 580.501 77.8 579.301 77.5C579.101 77.4 579.001 77.4 579.001 77.4L555.301 79.4L553.001 79.6C549.701 80 546.201 79.9 543.901 80.4C541.901 80.8 540.801 80.7 538.801 81.3C534.101 82.7 534.301 89 532.801 96.8C532.801 96.9 532.801 97.1 532.701 97.2V97.3C532.401 98.6 532.101 99.9 531.801 101.2C531.401 102.7 531.001 104.1 530.501 105.5C527.801 114.1 524.501 118 525.001 123.4C525.501 128.3 530.501 135 531.801 136.4C532.101 136.7 532.301 136.9 532.301 136.9C532.301 136.9 532.301 136.9 532.301 137C532.301 137.2 532.301 137.4 532.201 137.6C532.101 138.4 532.001 139.4 531.801 140.5C529.801 160.5 523.801 171.4 523.801 171.4Z" fill="#21181E"/>
<path d="M530.301 135.8C530.101 135.8 530.001 135.7 529.901 135.6C529.601 135.3 522.701 128 525.101 121.3C525.801 119.4 526.501 117.6 527.401 115.6C529.901 109.6 532.701 102.7 533.401 93.9C533.401 93.6 533.701 93.3 534.101 93.3C534.401 93.3 534.701 93.6 534.701 94C534.001 103 531.101 110 528.601 116.1C527.801 118.1 527.001 119.9 526.401 121.8C524.301 127.8 530.801 134.8 530.901 134.9C531.101 135.1 531.101 135.5 530.901 135.8C530.601 135.8 530.401 135.8 530.301 135.8Z" fill="#564C54"/>
<path d="M551.601 111C552.319 111 552.901 110.418 552.901 109.7C552.901 108.982 552.319 108.4 551.601 108.4C550.883 108.4 550.301 108.982 550.301 109.7C550.301 110.418 550.883 111 551.601 111Z" fill="#564C54"/>
<path d="M548.301 121.6C548.301 122.3 548.901 122.9 549.601 122.9C550.301 122.9 550.901 122.3 550.901 121.6C550.901 120.9 550.301 120.3 549.601 120.3C548.901 120.2 548.301 120.8 548.301 121.6Z" fill="#564C54"/>
<path d="M547.101 133.6C547.101 134.3 547.701 134.9 548.401 134.9C549.101 134.9 549.701 134.3 549.701 133.6C549.701 132.9 549.101 132.3 548.401 132.3C547.701 132.3 547.101 132.8 547.101 133.6Z" fill="#564C54"/>
<path d="M546.601 145.9C546.601 146.6 547.201 147.2 547.901 147.2C548.601 147.2 549.201 146.6 549.201 145.9C549.201 145.2 548.601 144.6 547.901 144.6C547.101 144.6 546.601 145.2 546.601 145.9Z" fill="#564C54"/>
<path d="M546.601 158.7C546.601 159.4 547.201 160 547.901 160C548.601 160 549.201 159.4 549.201 158.7C549.201 158 548.601 157.4 547.901 157.4C547.201 157.4 546.601 158 546.601 158.7Z" fill="#564C54"/>
<path d="M557.801 79.5C557.801 79.5 552.601 79 549.001 80L549.401 93.5L552.501 94.2L549.901 96.8L553.001 105.9C553.001 105.8 557.301 90.7 557.801 79.5Z" fill="#564C54"/>
<path d="M578.8 77.5L588.2 80.1L577.1 94.8L568.8 94.1L571.7 100.5L552.9 105.8C552.9 105.8 574.6 85.2 576.4 77.7L578.8 77.5Z" fill="#564C54"/>
<path d="M577.201 78.6C577.201 78.6 571.801 90.1 553.001 105.8C553.001 105.8 554.001 93.5 557.801 80.3C557.801 80.3 568.801 84.2 577.201 78.6Z" fill="white"/>
<path d="M550.401 115.5C556.601 115.5 569.201 106.7 569.701 106.3C569.901 106.1 570.001 105.8 569.801 105.6C569.601 105.4 569.301 105.3 569.101 105.5C569.001 105.6 556.201 114.5 550.401 114.5C544.801 114.5 543.601 108.4 543.501 108.3C543.401 108 543.201 107.8 542.901 107.9C542.601 108 542.401 108.2 542.501 108.5C542.601 108.6 544.001 115.5 550.401 115.5Z" fill="#564C54"/>
<path d="M557.8 79.5001L557.5 82.7001C557 88.7001 561.3 90.4001 567.4 87.2001C572.3 84.7001 576.4 81.0001 577.1 78.7001L557.8 79.5001Z" fill="#FF8C64"/>
<path d="M566.701 140.4C566.601 140.6 566.401 140.7 566.201 140.7C566.101 140.7 566.001 140.7 565.901 140.6C565.801 140.5 556.901 135.5 546.001 137.7C540.501 138.8 535.801 138.7 532.101 137.9C532.101 137.7 532.201 137.5 532.201 137.3V137.2C532.201 137.2 532.001 137 531.701 136.7C535.301 137.6 540.001 137.8 545.801 136.7C557.101 134.5 566.101 139.6 566.401 139.8C566.701 139.8 566.801 140.1 566.701 140.4Z" fill="#564C54"/>
<path d="M551.501 54.7001C551.501 54.7001 548.701 51.4001 547.101 54.7001C545.501 58.0001 546.701 64.7001 551.001 63.6001L551.501 54.7001Z" fill="#FF6A48"/>
<path d="M558.3 71.7L557.9 80.7C557.9 80.7 562.8 88.1 577.2 78.6C575.8 75.2 574.7 70.3 575.8 66.8C575.8 66.8 574.7 67.2 573 68.2C572.7 68.4 572.3 68.5 571.9 68.7C568.2 70.3 562.8 72.1 558.3 71.7Z" fill="#FF8C64"/>
<path d="M558.301 71.7001L558.101 76.0001C562.001 75.1001 569.101 73.0001 573.001 68.2001C572.601 68.4001 572.301 68.5001 571.901 68.7001C568.201 70.3001 562.801 72.1001 558.301 71.7001Z" fill="#21181E"/>
<path d="M550.5 68.7001C558.2 76.7001 575.3 67.2001 575.8 66.9001C576 66.2001 576.1 65.5001 576.2 64.8001C577.3 58.9001 577.4 53.4001 576.8 48.2001C577.1 42.7001 573.8 37.6001 568.6 35.7001C563.2 33.7001 558.4 36.1001 555.5 37.0001C551.1 38.3001 548.4 44.0001 548.4 52.0001C548.3 61.8001 548.5 66.8001 550.5 68.7001Z" fill="#FF8C64"/>
<path d="M553.401 44.6001C553.401 44.6001 555.001 44.8001 554.401 46.2001C553.801 47.7001 550.601 46.1001 548.301 48.7001C548.401 48.8001 547.501 45.3001 553.401 44.6001Z" fill="#21181E"/>
<path d="M560.701 44.6001C560.701 44.6001 559.101 44.8001 559.701 46.2001C560.301 47.7001 563.501 46.1001 565.801 48.7001C565.701 48.8001 566.701 45.3001 560.701 44.6001Z" fill="#21181E"/>
<path d="M564.601 57.3001C566.479 57.3001 568.001 56.718 568.001 56.0001C568.001 55.2821 566.479 54.7001 564.601 54.7001C562.723 54.7001 561.201 55.2821 561.201 56.0001C561.201 56.718 562.723 57.3001 564.601 57.3001Z" fill="#FF6A48"/>
<g opacity="0.8">
<path d="M547.201 57.3001C547.501 57.3001 547.701 57.3001 548.001 57.3001C549.901 57.3001 551.401 56.7001 551.401 56.0001C551.401 55.3001 549.901 54.7001 548.001 54.7001C547.701 54.7001 547.501 54.7001 547.301 54.7001L547.201 57.3001Z" fill="#FF6A48"/>
</g>
<path d="M560.601 51.9C560.601 52.9 561.101 53.8 561.601 53.8C562.201 53.8 562.601 53 562.601 51.9C562.601 50.9 562.101 50 561.601 50C561.001 50.1 560.601 50.9 560.601 51.9Z" fill="#21181E"/>
<path d="M550.501 51.9C550.501 52.9 551.001 53.8 551.501 53.8C552.101 53.8 552.501 53 552.501 51.9C552.501 50.9 552.001 50 551.501 50C550.901 50.1 550.501 50.9 550.501 51.9Z" fill="#21181E"/>
<path d="M555.401 61.7C554.201 61.7 553.001 61.3 551.801 60.2C551.601 60 551.601 59.8 551.801 59.6C552.001 59.4 552.201 59.4 552.401 59.6C555.501 62.6 559.601 59.3 559.701 59.2C559.901 59.1 560.101 59.1 560.301 59.3C560.401 59.5 560.401 59.7 560.201 59.9C560.301 59.8 558.001 61.7 555.401 61.7Z" fill="#21181E"/>
<path d="M555.001 55.8C554.501 55.8 554.201 55.7 554.201 55.7C554.101 55.7 554.001 55.6 553.901 55.5C553.801 55.4 553.801 55.3 553.901 55.2L555.501 50.7C555.601 50.5 555.801 50.4 556.001 50.4C556.201 50.5 556.301 50.7 556.301 50.9L554.901 54.9C555.301 54.9 556.001 54.9 556.601 54.5C556.801 54.4 557.101 54.5 557.201 54.7C557.301 54.9 557.201 55.2 557.001 55.3C556.201 55.7 555.501 55.8 555.001 55.8Z" fill="#21181E"/>
<path d="M572.4 62.7001C572.4 62.8001 573.8 65.9001 575.7 66.8001C575.9 66.1001 576 65.4001 576.1 64.7001C576.1 64.8001 574.2 64.4001 572.4 62.7001Z" fill="#21181E"/>
<path d="M574.301 55.6C574.301 55.6 578.401 50.1 581.401 54.4C583.901 58 579.201 67.2 574.301 64V55.6Z" fill="#FF8C64"/>
<path d="M578.501 62.3C578.501 62.9 578.001 63.3 577.501 63.3C576.901 63.3 576.501 62.8 576.501 62.3C576.501 61.7 577.001 61.3 577.501 61.3C578.101 61.2 578.501 61.7 578.501 62.3Z" fill="white"/>
<path d="M574.901 62.5C574.801 62.5 574.801 62.5 574.901 62.5C574.601 62.5 574.501 62.3 574.501 62C575.001 57.3 578.901 55.7 579.101 55.6C579.301 55.5 579.601 55.6 579.601 55.8C579.701 56 579.601 56.3 579.401 56.3C579.301 56.4 575.801 57.8 575.301 62C575.301 62.3 575.101 62.5 574.901 62.5Z" fill="#21181E"/>
<path d="M578.801 59.9001C578.701 59.9001 578.601 59.9001 578.501 59.8001C578.101 59.5001 577.001 58.8001 576.301 59.0001C576.101 59.1001 575.801 58.9001 575.801 58.7001C575.701 58.5001 575.901 58.2001 576.101 58.2001C577.401 57.9001 578.901 59.1001 579.001 59.2001C579.201 59.3001 579.201 59.6001 579.101 59.8001C579.001 59.9001 578.901 59.9001 578.801 59.9001Z" fill="#21181E"/>
<path d="M577.6 42.7C577.6 42.7 572 47.8 569.6 46.5C567.2 45.2 571.1 40.6 571.1 40.6C571.1 40.6 562.8 45.1 559.6 43.6C556.4 42.2 562.1 38.3 562.1 38.3C562.1 38.3 555.8 43.9 552.2 43.6C548.6 43.3 552.2 38.7 552.2 38.7C552.2 38.7 548.9 45.1 546.7 44.5C544.5 44 547.4 34.8 554.7 31.7C561.9 28.7 580.2 29.2 577.6 42.7Z" fill="#21181E"/>
<path d="M572.701 44.6C572.701 44.6 570.901 56.3 573.801 56.3C576.701 56.4 579.701 51.8 577.601 42.6L572.701 44.6Z" fill="#21181E"/>
<path d="M542.9 52.3L548.3 52.5V53.3L542.8 53.1C542.6 53.1 542.4 52.9001 542.4 52.7001C542.5 52.5001 542.7 52.3 542.9 52.3Z" fill="white"/>
<path d="M556.9 52.1001C556.9 48.6001 559.8 45.7001 563.3 45.7001C566.8 45.7001 569.7 48.6001 569.7 52.1001C569.7 55.6001 566.8 58.5001 563.3 58.5001C559.7 58.5001 556.9 55.6001 556.9 52.1001ZM557.6 52.1001C557.6 55.2001 560.1 57.7001 563.2 57.7001C566.3 57.7001 568.8 55.2001 568.8 52.1001C568.8 49.0001 566.3 46.5001 563.2 46.5001C560.1 46.5001 557.6 49.0001 557.6 52.1001Z" fill="white"/>
<path d="M541.801 52.1001C541.801 48.6001 544.701 45.7001 548.201 45.7001C551.701 45.7001 554.601 48.6001 554.601 52.1001C554.601 55.6001 551.701 58.5001 548.201 58.5001C544.701 58.5001 541.801 55.6001 541.801 52.1001ZM542.601 52.1001C542.601 55.2001 545.101 57.7001 548.201 57.7001C551.301 57.7001 553.801 55.2001 553.801 52.1001C553.801 49.0001 551.301 46.5001 548.201 46.5001C545.101 46.5001 542.601 49.0001 542.601 52.1001Z" fill="white"/>
<path d="M577.101 53.5H577.201C577.401 53.4 577.501 53.2 577.401 53C575.701 48.6 569.001 50.9 569.001 50.9C568.801 51 568.701 51.2 568.801 51.4C568.901 51.6 569.101 51.7 569.301 51.6C569.401 51.6 575.401 49.6 576.801 53.3C576.801 53.4 577.001 53.5 577.101 53.5Z" fill="white"/>
<path d="M554.101 51.1C554.201 51.1 554.301 51.1 554.401 51C555.401 49.9 557.001 50.8 557.001 50.8C557.201 50.9 557.401 50.8 557.501 50.7C557.601 50.5 557.501 50.3 557.401 50.2C556.701 49.8 555.001 49.3 553.801 50.5C553.701 50.6 553.701 50.9 553.801 51C553.901 51.1 554.001 51.1 554.101 51.1Z" fill="white"/>
<path d="M588.201 231.2C587.901 231.2 587.701 231.1 587.401 231C586.501 230.6 586.101 229.5 586.501 228.6L590.401 220.5L565.001 208.2L561.101 216.3C560.701 217.2 559.601 217.6 558.701 217.2C557.801 216.8 557.401 215.7 557.801 214.8L562.501 205C562.701 204.6 563.101 204.2 563.501 204.1C564.001 203.9 564.501 204 564.901 204.2L593.601 218.1C594.501 218.5 594.901 219.6 594.501 220.5L589.801 230.3C589.501 230.8 588.901 231.2 588.201 231.2Z" fill="#564C54"/>
<path d="M567.601 210.1L587.301 219.6C587.801 219.8 588.301 219.6 588.601 219.2L590.101 216.2C590.301 215.7 590.101 215.2 589.701 214.9L570.001 205.4C569.501 205.2 569.001 205.4 568.701 205.8L567.201 208.8C567.001 209.3 567.201 209.9 567.601 210.1Z" fill="#006FF9"/>
<path d="M516.401 258.4L581.401 289.8C583.301 290.7 585.501 289.9 586.401 288L608.101 243.1C609.001 241.2 608.201 239 606.301 238.1L541.301 206.7C539.401 205.8 537.201 206.6 536.301 208.5L514.601 253.4C513.701 255.3 514.501 257.5 516.401 258.4Z" fill="#21181E"/>
<path d="M554.901 246.3C553.801 249.9 555.801 253.7 559.401 254.8C563.001 255.9 566.801 253.9 567.901 250.3C569.001 246.7 567.001 242.9 563.401 241.8C559.801 240.7 556.001 242.7 554.901 246.3Z" fill="#564C54"/>
<path d="M580.701 196C580.701 196 573.801 198.8 571.201 201.9C568.601 205 571.001 207.7 571.001 207.7C571.001 207.7 566.601 213.9 567.401 216.2C568.201 218.5 570.601 217.9 570.601 217.9C570.601 217.9 570.401 219.7 571.401 220.4C572.401 221.1 574.701 220.2 574.701 220.2C574.701 220.2 574.601 223.3 575.801 223.9C577.001 224.5 579.001 223 579.001 223C579.001 223 580.101 226.5 582.101 225.6C586.601 223.5 595.001 206.3 595.001 206.3C595.001 206.3 587.301 198.5 580.701 196Z" fill="#FF8C64"/>
<path d="M571.201 207.7C571.101 207.7 570.901 207.7 570.901 207.6C570.701 207.4 570.701 207.1 570.901 206.9C573.101 204.7 575.601 201.9 575.701 201.9C575.901 201.7 576.201 201.7 576.401 201.9C576.601 202.1 576.601 202.4 576.401 202.6C576.401 202.6 573.901 205.4 571.601 207.6C571.501 207.6 571.401 207.7 571.201 207.7Z" fill="#FF6A48"/>
<path d="M599.601 86.6001L600.001 87.1001L600.301 87.6001L600.901 88.5001C601.301 89.1001 601.601 89.7001 602.001 90.2001C602.701 91.4001 603.401 92.5001 604.001 93.7001C605.301 96.0001 606.601 98.4001 607.701 100.7C608.901 103.1 610.001 105.5 611.001 107.9C612.001 110.3 613.001 112.8 613.901 115.4C614.801 117.9 615.601 120.5 616.301 123.1C617.001 125.7 617.601 128.3 618.201 131C619.301 136.3 619.901 141.8 620.001 147.4C620.001 148.8 620.001 150.2 620.001 151.6V152.7C620.001 153.3 619.901 153.9 619.901 154.4C619.801 154.9 619.801 155.4 619.701 155.9L619.601 156.6C619.601 156.8 619.501 157 619.501 157.2C619.101 158.9 618.701 160.4 618.201 161.8C617.701 163.2 617.201 164.5 616.701 165.8C615.701 168.4 614.601 170.8 613.401 173.1C612.301 175.4 611.101 177.7 609.901 180C608.701 182.2 607.501 184.5 606.201 186.7C604.901 188.9 603.701 191.1 602.401 193.2C601.101 195.3 599.801 197.5 598.401 199.6L596.401 202.8L595.401 204.4L594.301 206L580.001 197L581.701 193.9L583.401 190.7C584.501 188.6 585.601 186.4 586.701 184.3C587.801 182.2 588.901 180 589.901 177.9C591.001 175.8 592.001 173.6 593.001 171.5C594.001 169.4 595.001 167.2 595.801 165.1C596.701 163 597.501 160.9 598.201 158.8C598.601 157.8 598.901 156.8 599.101 155.8C599.401 154.9 599.601 154 599.701 153.2C599.701 153.1 599.701 153 599.701 152.9V152.7C599.701 152.6 599.701 152.4 599.701 152.3C599.701 152.2 599.701 152.2 599.701 152.1V151.3C599.701 150.2 599.701 149.2 599.601 148.1C599.101 139.6 597.001 131 593.801 122.6C592.201 118.4 590.401 114.3 588.301 110.3C587.301 108.3 586.201 106.3 585.101 104.4C584.501 103.4 584.001 102.5 583.401 101.5C583.101 101 582.801 100.6 582.501 100.1L582.101 99.4001L582.001 99.0001L599.601 86.6001Z" fill="#21181E"/>
<path d="M586.701 197.1C586.501 197.9 587.001 198.6 587.801 198.8C588.601 199 589.301 198.5 589.501 197.7C589.701 196.9 589.201 196.2 588.401 196C587.601 195.9 586.901 196.3 586.701 197.1Z" fill="#564C54"/>
<path d="M598.301 199.3C598.201 199.3 598.101 199.3 597.901 199.2C597.801 199.2 591.401 194.7 583.901 190.7C583.601 190.5 583.501 190.2 583.601 189.9C583.801 189.6 584.101 189.5 584.401 189.6C592.001 193.6 598.501 198.1 598.501 198.2C598.801 198.4 598.801 198.8 598.601 199.1C598.701 199.2 598.501 199.3 598.301 199.3Z" fill="#564C54"/>
<path d="M582.701 198.5C582.601 198.5 582.501 198.5 582.401 198.4C582.101 198.2 582.001 197.9 582.201 197.6L585.801 191.2C586.001 190.9 586.301 190.8 586.601 191C586.901 191.2 587.001 191.5 586.801 191.8L583.201 198.2C583.101 198.4 582.901 198.5 582.701 198.5Z" fill="#564C54"/>
<path d="M592.8 121.9C592.6 121.9 592.3 121.8 592.2 121.5C592.1 121.4 586.5 106.8 580.6 99.8001C580.4 99.5001 580.4 99.2001 580.7 98.9001C581 98.7001 581.3 98.7001 581.6 99.0001C587.6 106.1 593.1 120.4 593.4 121C593.5 121.3 593.4 121.7 593 121.8C593 121.8 592.9 121.9 592.8 121.9Z" fill="#564C54"/>
<path d="M584.201 104.2C584.101 104.2 584.101 104.2 584.001 104.2L579.101 102.6C578.801 102.5 578.601 102.2 578.701 101.8C578.801 101.5 579.101 101.3 579.501 101.4L584.401 103C584.701 103.1 584.901 103.4 584.801 103.8C584.701 104 584.401 104.2 584.201 104.2Z" fill="#564C54"/>
<path d="M608.401 154.6C608.301 154.6 608.301 154.6 608.201 154.6C608.201 154.6 605.101 153.5 600.701 153.5C600.401 153.5 600.101 153.2 600.101 152.9C600.101 152.6 600.401 152.3 600.701 152.3C605.301 152.3 608.501 153.5 608.601 153.5C608.901 153.6 609.101 154 609.001 154.3C608.901 154.4 608.601 154.6 608.401 154.6Z" fill="#564C54"/>
<path d="M600.701 153.4C600.501 153.4 600.301 153.3 600.201 153.1C600.001 152.8 600.101 152.4 600.401 152.3C602.301 151.3 605.601 149.9 605.801 149.9C606.101 149.8 606.501 149.9 606.601 150.2C606.701 150.5 606.601 150.9 606.301 151C606.301 151 602.901 152.4 601.001 153.3C600.901 153.4 600.801 153.4 600.701 153.4Z" fill="#564C54"/>
<path d="M133.8 415.9C193.999 415.9 242.8 412.094 242.8 407.4C242.8 402.706 193.999 398.9 133.8 398.9C73.6008 398.9 24.7998 402.706 24.7998 407.4C24.7998 412.094 73.6008 415.9 133.8 415.9Z" fill="#C9DAF4"/>
<path d="M142.7 185.2V185.8V186.6C142.7 187.1 142.7 187.7 142.7 188.2C142.7 189.3 142.7 190.4 142.7 191.5C142.7 193.8 142.8 196 143 198.3C143.3 202.9 143.9 207.4 144.7 211.9C145.1 214.2 145.6 216.4 146.1 218.6C146.6 220.8 147.2 223 147.9 225.2C148.1 225.8 148.2 226.3 148.4 226.8C148.6 227.3 148.7 227.9 148.9 228.4C149.3 229.5 149.6 230.6 150 231.6C150.2 232.1 150.4 232.7 150.6 233.2L151.2 234.8L151.4 235.2L151.5 235.4V235.3C151.4 235.2 151.4 235.1 151.4 235.1C151.4 235 151.3 235 151.3 235C151.2 234.9 151.2 235 151.3 235.1C151.5 235.4 152.1 235.9 152.7 236.4C153.4 236.9 154.2 237.5 155 238C156.7 239.1 158.6 240.2 160.7 241.3C162.7 242.4 164.8 243.4 166.9 244.3C169 245.3 171.2 246.2 173.4 247.2C177.8 249 182.3 250.8 186.9 252.5C189.2 253.3 191.5 254.2 193.7 255L197.1 256.2L198.8 256.8L200.5 257.4L196 273.1L194.1 272.6L192.3 272.1C191.1 271.8 189.9 271.4 188.6 271.1C186.2 270.4 183.7 269.7 181.3 269C176.4 267.5 171.6 266 166.8 264.2C162 262.5 157.1 260.6 152.3 258.3C149.9 257.2 147.4 255.9 144.9 254.4C143.6 253.7 142.4 252.8 141 251.9C139.7 250.9 138.3 249.8 136.9 248.3C136.2 247.5 135.4 246.6 134.7 245.5C134.5 245.2 134.3 244.9 134.1 244.6C133.9 244.3 133.7 243.9 133.6 243.5L133.4 243.1L133.3 242.9L133.1 242.4L132.3 240.6C132 240 131.8 239.4 131.5 238.7C131 237.5 130.5 236.2 130 235C129.8 234.4 129.5 233.7 129.3 233.1C129.1 232.5 128.8 231.8 128.6 231.2L128 229.3C127.8 228.7 127.6 228 127.4 227.4C127 226.1 126.7 224.8 126.3 223.5C125.6 220.9 125 218.3 124.4 215.7C123.3 210.5 122.5 205.2 122 199.9C121.8 197.2 121.6 194.6 121.5 191.8C121.5 190.4 121.4 189.1 121.5 187.7C121.5 187 121.5 186.3 121.5 185.6V184.5V183.9V183.2L142.7 185.2Z" fill="#FF4231"/>
<path d="M144.399 240.1C144.199 240.1 143.999 240 143.899 239.9C143.699 239.6 143.799 239.3 143.999 239.1C147.299 236.6 150.399 235.1 150.499 235C150.799 234.8 151.199 235 151.299 235.3C151.499 235.6 151.299 236 150.999 236.1C150.999 236.1 147.899 237.7 144.599 240.1C144.699 240 144.599 240.1 144.399 240.1Z" fill="#B81A2A"/>
<path d="M146.199 236C145.899 236 145.599 235.8 145.599 235.4C145.599 235.1 145.799 234.8 146.199 234.7C146.199 234.7 148.599 234.5 150.599 234.5C150.899 234.5 151.199 234.8 151.199 235.1C151.199 235.4 150.899 235.7 150.599 235.7C148.599 235.8 146.299 236 146.199 236Z" fill="#B81A2A"/>
<path d="M186.199 272.5C186.099 272.5 186.099 272.5 185.999 272.5C185.699 272.4 185.499 272.1 185.599 271.7L191.099 253.2C191.199 252.9 191.499 252.7 191.899 252.8C192.199 252.9 192.399 253.2 192.299 253.6L186.799 272.1C186.699 272.3 186.499 272.5 186.199 272.5Z" fill="#C9DAF4"/>
<path d="M196.5 270C196.4 270 196.4 270 196.3 270L187.9 267.3C187.6 267.2 187.4 266.9 187.5 266.5C187.6 266.2 187.9 266 188.3 266.1L196.7 268.8C197 268.9 197.2 269.2 197.1 269.6C197 269.9 196.8 270 196.5 270Z" fill="#C9DAF4"/>
<path d="M195.099 263.4C195.299 264.2 194.799 264.9 193.999 265.1C193.199 265.3 192.499 264.8 192.299 264C192.099 263.2 192.599 262.5 193.399 262.3C194.199 262.2 194.899 262.7 195.099 263.4Z" fill="#C9DAF4"/>
<path d="M155.3 361.1H83.5996C81.8996 361.1 80.5996 359.7 80.5996 358.1C80.5996 356.4 81.9996 355.1 83.5996 355.1H155.3C157 355.1 158.3 356.5 158.3 358.1C158.3 359.8 156.9 361.1 155.3 361.1Z" fill="#0045BD"/>
<path d="M161.9 407.5C160.4 407.5 159.1 406.4 158.9 404.9L146.2 310H93L80.5 404.8C80.3 406.5 78.8 407.6 77.1 407.4C75.4 407.2 74.3 405.7 74.5 404L87.4 306.5C87.6 305 88.9 303.9 90.4 303.9H148.9C150.4 303.9 151.7 305 151.9 306.5L165 404C165.2 405.7 164.1 407.2 162.4 407.4C162.1 407.5 162 407.5 161.9 407.5Z" fill="#006FF9"/>
<path d="M131.9 307H93.8997C81.8997 307 68.9997 300.4 67.0997 288.5C64.5997 272.6 63.9997 257.2 64.6997 243.1C65.4997 227.1 73.0997 212.3 85.6997 202.4C85.6997 202.4 93.2997 235.5 83.6997 281.1C87.3997 298.4 131.9 307 131.9 307Z" fill="#006FF9"/>
<path d="M199.3 396.5C197 392.8 176.7 373.4 176.7 373.4C176.7 373.4 172.6 376.7 172.8 380.2C173 383.6 172.9 401.6 172.9 403.5H175.4L176.8 395.3C176.8 395.3 182.4 404.3 186.6 407.3C190.8 410.4 205.1 409.8 208.5 409.3C211.9 408.9 201.6 400.2 199.3 396.5Z" fill="#FF4231"/>
<path d="M174.3 364.5L177 372.5C177 372.5 175.9 375.1 177 379C178.1 382.9 182.5 389 186.6 393.6C190.2 397.5 197.8 401.4 200 400.4C202.3 399.4 195.7 391.5 193.7 387.4C191.8 383.3 191 379.4 190.3 375.9C189.6 372.4 189.2 363.7 189.2 363.7L174.3 364.5Z" fill="#FF8C64"/>
<path d="M259.101 390.2C255.701 387.6 229.701 376.9 229.701 376.9C229.701 376.9 227.001 381.4 228.501 384.7C229.901 387.8 236.301 404.6 237.101 406.3L239.401 405.4L237.701 397.3C237.701 397.3 246.201 403.6 251.201 404.9C256.201 406.2 269.301 400.5 272.301 398.9C275.301 397.2 262.601 392.8 259.101 390.2Z" fill="#FF4231"/>
<path d="M224.2 369.5L229.6 376C229.6 376 229.5 378.9 232 382C234.5 385.2 240.7 389.3 246.2 392.1C250.9 394.5 259.5 395.4 261.2 393.6C262.9 391.8 253.9 386.9 250.6 383.8C247.3 380.7 245.1 377.3 243.3 374.3C241.4 371.3 237.8 363.3 237.8 363.3L224.2 369.5Z" fill="#FF8C64"/>
<path d="M201 271.2C196.8 267.1 129.8 250.1 107.8 256.3C105.3 261.2 135.9 281.2 143.8 292.5C172.8 297.2 188.9 307 188.9 307C188.9 307 199.2 330.7 205.3 339.5C211.4 348.2 223 372.4 223 372.4L239.4 364.6C239.4 364.6 212.5 282.5 201 271.2Z" fill="#21181E"/>
<path d="M219 363C218.8 363 218.5 362.9 218.4 362.6C218.3 362.3 218.4 361.9 218.7 361.8L235.1 354.7C235.4 354.6 235.8 354.7 235.9 355C236 355.3 235.9 355.7 235.6 355.8L219.2 362.9C219.2 363 219.1 363 219 363Z" fill="#564C54"/>
<path d="M223 361.2C222.8 361.2 222.5 361.1 222.4 360.8C222.4 360.7 221.1 357.9 211.6 342.5C201.3 325.7 191 301.5 190.9 301.2C190.8 300.9 190.9 300.5 191.2 300.4C191.5 300.3 191.9 300.4 192 300.7C192.1 300.9 202.4 325.1 212.6 341.8C222.1 357.4 223.4 360.2 223.4 360.3C223.5 360.6 223.4 361 223.1 361.1C223.2 361.2 223.1 361.2 223 361.2Z" fill="#564C54"/>
<path d="M84.2999 250.8C84.2999 250.8 61.4999 301 124.2 304.6C152.5 306.3 166 301.9 166 301.9C166 301.9 166.7 326.9 168 337.5C169.3 348.1 173.2 366.9 173.2 366.9H190.2C190.2 366.9 197 289.8 183.3 281.3C169.6 272.9 145.9 266.5 112.1 263.3C112.1 263.3 89.2999 253.2 84.2999 250.8Z" fill="#21181E"/>
<path d="M175.3 357.8C175 357.8 174.8 357.6 174.7 357.3C172.3 345.2 171.4 330.1 170.8 318C170.3 308 169.7 298.5 168.4 297.3C167.4 296.4 163 297.1 157.5 298C146.6 299.8 130.1 302.6 111.9 298.3C102 296 94.6997 291.2 90.1997 284C82.4997 271.6 85.9997 256.2 85.9997 256.1C86.0997 255.8 86.3997 255.6 86.6997 255.6C86.9997 255.7 87.1997 256 87.1997 256.3C87.1997 256.4 83.7997 271.4 91.1997 283.3C95.4997 290.2 102.5 294.8 112.1 297.1C130.1 301.3 146.4 298.6 157.3 296.8C163.8 295.7 167.7 295.1 169.2 296.4C170.8 297.8 171.2 304.7 172 317.9C172.7 330 173.5 345 175.9 357C176 357.3 175.8 357.6 175.4 357.7C175.4 357.8 175.4 357.8 175.3 357.8Z" fill="#564C54"/>
<path d="M190.5 357.8L171.6 357.4C171.3 357.4 171 357.1 171 356.8C171 356.5 171.3 356.2 171.6 356.2L190.5 356.6C190.8 356.6 191.1 356.9 191.1 357.2C191.1 357.6 190.9 357.8 190.5 357.8Z" fill="#564C54"/>
<path d="M130.2 275.9H195.3C195.9 275.9 196.5 275.4 196.5 274.7V268.2C196.5 267.6 196 267 195.3 267H130.2C129.6 267 129 267.5 129 268.2V274.7C129 275.3 129.5 275.9 130.2 275.9Z" fill="#0045BD"/>
<path d="M203.5 275.9C206 275.9 208.3 274.2 208.9 271.7L221.5 224.5C222.3 221.6 220.1 218.8 217.1 218.8H186.9C184.9 218.8 183.1 220.2 182.5 222.1L167.4 275.9H203.5Z" fill="#006FF9"/>
<path d="M182.6 222.1L167.6 275.4H164.2L179.2 222.1C179.8 220.1 181.5 218.8 183.6 218.8H187C184.9 218.8 183.1 220.1 182.6 222.1Z" fill="#0045BD"/>
<path d="M191.1 248.1C190.4 251.1 192.3 253.5 195.2 253.5C198.2 253.5 201.1 251.1 201.8 248.1C202.5 245.1 200.6 242.7 197.7 242.7C194.7 242.7 191.8 245.1 191.1 248.1Z" fill="#0045BD"/>
<path d="M146.6 224.2C146.6 224.3 146.6 224.3 146.5 224.4C146.2 225 145.9 225.5 145.5 226.1C143.3 229.4 140.1 231.9 138.9 232.8C138.6 233.1 138.3 233.2 138.3 233.2C138.3 233.2 138.3 233.2 138.3 233.3C138.3 233.5 138.3 233.7 138.2 233.9C138.1 234.7 138.1 235.6 138.1 236.7C138.4 248.8 138.6 250.9 138.7 256.1C119.1 275.1 85.7002 254.1 84.3002 251C84.9002 238.9 84.9002 238.9 85.4002 227.1C85.6002 221.4 85.0002 212.7 83.6002 203.9C83.5002 203.6 83.5002 203.2 83.4002 202.9C83.0002 200.3 82.5002 197.7 81.9002 195.2C79.5002 184.2 82.3002 175.3 89.0002 172.3C91.3002 171.3 97.8002 170.6 100.7 170.6C101.5 170.6 102.2 170.6 102.9 170.6C106.9 170.6 110 170.8 110 170.8L128.5 174.6C130.3 175.2 131.9 175.7 133.3 176.3C134.5 176.8 135.7 177.3 136.7 177.8C145.6 182.2 145 187.3 145 196.5C145 199.1 145.2 201.8 145.5 204.3C145.6 205.1 145.7 205.9 145.8 206.7C146.9 214 148.4 220.6 146.6 224.2Z" fill="#FF4231"/>
<path d="M122.3 189.2C122.3 189.9 121.7 190.5 121 190.5C120.3 190.5 119.7 189.9 119.7 189.2C119.7 188.5 120.3 187.9 121 187.9C121.7 187.9 122.3 188.5 122.3 189.2Z" fill="#B81A2A"/>
<path d="M122.8 194.8C122.8 195.5 122.2 196.1 121.5 196.1C120.8 196.1 120.2 195.5 120.2 194.8C120.2 194.1 120.8 193.5 121.5 193.5C122.2 193.5 122.8 194.1 122.8 194.8Z" fill="#B81A2A"/>
<path d="M108.7 170.5C108.7 170.5 99.2003 169.4 99.1003 175C99.0003 180.6 109.6 188.2 118.7 185.7C118.6 185.7 108.2 178.5 108.7 170.5Z" fill="white"/>
<path d="M128.201 174.2C128.201 174.2 138.901 176.2 138.301 182.2C137.701 188.2 127.501 190 122.601 186C122.601 185.9 127.401 182.8 128.201 174.2Z" fill="white"/>
<path d="M128.2 173.5L127.6 180.2C127.1 185.6 120.6 188.2 116.6 184.5C111.9 180.2 108 174.8 108.7 170.6L128.2 173.5Z" fill="#FF8C64"/>
<path d="M138.3 233.1C138.3 233.4 138.3 233.5 138.2 233.7C134.7 233.8 130.3 233.1 125.4 231.1C115.7 227.2 106.5 230.3 106.5 230.3C106.4 230.3 106.3 230.3 106.2 230.3C106 230.3 105.9 230.1 105.8 230C105.7 229.7 105.8 229.4 106.1 229.3C106.5 229.2 115.7 226.1 125.8 230.1C130.9 232.1 135.4 232.8 138.8 232.6C138.5 233 138.3 233.1 138.3 233.1Z" fill="#B81A2A"/>
<path d="M126.5 204.7C120.3 203.5 109.4 192.3 108.9 191.8C108.7 191.6 108.7 191.3 108.9 191.1C109.1 190.9 109.4 190.9 109.6 191.1C109.7 191.2 120.7 202.6 126.6 203.7C132.2 204.8 134.6 198.9 134.6 198.8C134.7 198.5 135 198.4 135.3 198.5C135.6 198.6 135.7 198.9 135.6 199.2C135.7 199.3 133 206 126.5 204.7Z" fill="#B81A2A"/>
<path d="M139 247.2C138.7 247.2 138.4 247 138.4 246.7C137.8 241.8 137.7 233.3 137.7 233.2C137.7 233 137.8 232.7 138 232.6C138.1 232.6 143.7 229.8 146 223.9C146.1 223.6 146.5 223.4 146.8 223.6C147.1 223.7 147.3 224.1 147.1 224.4C145 229.9 140.2 232.8 138.9 233.6C138.9 235.3 139.1 242.3 139.6 246.6C139.7 246.8 139.4 247.1 139 247.2C139.1 247.2 139.1 247.2 139 247.2Z" fill="#B81A2A"/>
<path d="M126.9 121.7C126.5 128.1 121 133 114.6 132.7C111.6 132.5 108.9 131.2 106.9 129.2C104.7 126.9 103.4 123.8 103.6 120.4C104 114 109.5 109.1 115.9 109.4C121.6 109.7 126.2 114.2 126.8 119.7C127 120.3 127 121 126.9 121.7Z" fill="#21181E"/>
<path d="M126.9 121.7C126.5 128.1 121 133 114.6 132.7C111.6 132.5 108.9 131.2 106.9 129.2C109.9 125.3 116.9 118.2 126.8 119.7C127 120.3 127 121 126.9 121.7Z" fill="#FF4231"/>
<path d="M144.6 136.6C144.6 136.6 147.6 145.8 142.7 149.3L142.4 136.7L144.6 136.6Z" fill="#21181E"/>
<path d="M139.5 126.8C139.5 126.8 128 115.2 114.1 124.5C99.9 134 101.2 158.6 113.8 161.7C113.7 161.7 134.9 143.7 139.5 126.8Z" fill="#21181E"/>
<path d="M139.099 150.9C139.099 150.9 142.499 148.1 143.499 151.7C144.499 155.3 141.999 161.8 137.899 159.9L139.099 150.9Z" fill="#FF6A48"/>
<path d="M129.3 166.7L127.9 175.8C127.9 175.8 121.2 182.8 108.6 170.5C111.9 168 113.1 162.2 112.7 158.5C112.7 158.5 113.7 159.1 115.2 160.4C115.5 160.7 115.9 160.9 116.3 161.1C119.7 163.3 124.7 166.2 129.3 166.7Z" fill="#FF8C64"/>
<path d="M129.3 166.7L128.7 171C125 169.4 118.3 165.9 115.3 160.4C115.6 160.6 116 160.9 116.4 161.1C119.7 163.3 124.7 166.2 129.3 166.7Z" fill="#21181E"/>
<path d="M137.8 164.8C129.6 172.5 113.3 159 112.8 158.5C112.8 157.8 112.8 157 112.8 156.3C112.8 150.2 113.8 144.7 115.4 139.6C116.2 134 120.4 129.5 126 128.6C131.7 127.7 136.1 130.9 138.8 132.4C142.9 134.6 144.6 140.7 143.1 148.8C141.2 158.7 140.1 162.6 137.8 164.8Z" fill="#FF8C64"/>
<path d="M132.1 139.1C132.1 139.1 133.7 139.6 132.8 140.9C132 142.3 129.1 140 126.3 142.3C126.3 142.3 126 138.7 132.1 139.1Z" fill="#21181E"/>
<path d="M139.299 140.5C139.299 140.5 137.699 140.4 137.999 141.9C138.299 143.5 141.799 142.5 143.599 145.6C143.499 145.6 145.199 142.3 139.299 140.5Z" fill="#21181E"/>
<path d="M129.4 150.4C129.3 151.1 127.6 151.5 125.7 151.1C123.8 150.7 122.4 149.8 122.5 149.1C122.6 148.4 124.3 148 126.2 148.4C128.1 148.8 129.6 149.7 129.4 150.4Z" fill="#FF6A48"/>
<g opacity="0.8">
<path d="M143.1 154.4C142.8 154.4 142.6 154.3 142.3 154.3C140.4 153.9 139 153 139.1 152.3C139.2 151.6 140.9 151.2 142.8 151.6C143.1 151.6 143.3 151.7 143.5 151.8L143.1 154.4Z" fill="#FF6A48"/>
</g>
<path d="M116.9 155C116.8 155.1 114.9 158 112.8 158.5C112.8 157.8 112.8 157 112.8 156.3C112.8 156.3 114.9 156.3 116.9 155Z" fill="#21181E"/>
<path d="M116.4 147.6C116.4 147.6 113.4 141.3 109.5 145.1C106.4 148.2 109.2 158.3 114.7 156.1L116.4 147.6Z" fill="#FF8C64"/>
<path d="M113.4 155.8C113.3 156.5 112.6 157 111.9 156.8C111.2 156.7 110.7 156 110.9 155.3C111 154.6 111.7 154.1 112.4 154.3C113.1 154.5 113.6 155.1 113.4 155.8Z" fill="white"/>
<path d="M114.5 154.3C114.3 154.3 114.1 154.1 114.2 153.8C114.5 149.6 111.3 147.4 111.2 147.4C111 147.3 110.9 147 111.1 146.8C111.2 146.6 111.5 146.5 111.7 146.7C111.9 146.8 115.5 149.2 115.1 153.9C115 154.1 114.8 154.3 114.5 154.3C114.6 154.3 114.6 154.3 114.5 154.3Z" fill="#21181E"/>
<path d="M111.1 151C111 151 110.9 150.9 110.8 150.8C110.7 150.6 110.8 150.3 111 150.2C111.2 150.1 112.9 149.2 114.1 149.8C114.3 149.9 114.4 150.2 114.3 150.4C114.2 150.6 113.9 150.7 113.7 150.6C113 150.3 111.8 150.8 111.3 151C111.3 151 111.2 151 111.1 151Z" fill="#21181E"/>
<path d="M130.799 146.5C130.599 147.5 129.999 148.3 129.399 148.2C128.799 148.1 128.499 147.2 128.699 146.2C128.899 145.2 129.499 144.4 130.099 144.5C130.699 144.5 130.999 145.4 130.799 146.5Z" fill="#21181E"/>
<path d="M140.899 148.4C140.699 149.4 140.099 150.2 139.499 150.1C138.899 150 138.599 149.1 138.799 148.1C138.999 147.1 139.599 146.3 140.199 146.4C140.799 146.5 141.099 147.4 140.899 148.4Z" fill="#21181E"/>
<path d="M134.1 157.2C131.5 156.7 129.6 154.4 129.5 154.4C129.3 154.2 129.4 153.9 129.6 153.8C129.8 153.6 130.1 153.7 130.2 153.9C130.3 154.1 133.8 158.2 137.5 155.7C137.7 155.6 138 155.6 138.1 155.8C138.2 156 138.2 156.3 138 156.4C136.6 157.3 135.3 157.4 134.1 157.2Z" fill="#21181E"/>
<path d="M115.6 134C115.6 134 120.2 140.2 122.8 139.4C125.4 138.6 122.5 133.2 122.5 133.2C122.5 133.2 129.9 139.3 133.4 138.4C136.9 137.6 131.9 132.6 131.9 132.6C131.9 132.6 137.1 139.4 140.8 139.8C144.5 140.2 141.7 134.9 141.7 134.9C141.7 134.9 143.8 141.9 146.1 141.8C148.4 141.7 147.2 132 140.6 127.5C133.9 123 115.5 120 115.6 134Z" fill="#21181E"/>
<path d="M120.5 136.3C120.5 136.3 121.1 148.4 117.5 149.1C113.2 149.9 113 140.3 116 132.8L120.5 136.3Z" fill="#21181E"/>
<path d="M135.6 151.4C135.1 151.3 134.4 151.1 133.7 150.6C133.5 150.5 133.5 150.2 133.6 150C133.7 149.8 134 149.8 134.2 149.9C134.8 150.4 135.4 150.5 135.9 150.6L135.3 146.4C135.3 146.2 135.4 145.9 135.7 145.9C135.9 145.9 136.2 146 136.2 146.3L136.9 151.1C136.9 151.2 136.9 151.3 136.8 151.4C136.7 151.5 136.6 151.6 136.5 151.6C136.5 151.5 136.1 151.5 135.6 151.4Z" fill="#21181E"/>
<path d="M148.799 259.1C148.799 259.1 162.999 258.7 167.699 262.4L164.999 271.8C164.999 271.8 157.199 269.5 154.999 270.1C152.799 270.7 151.799 274.5 143.999 273L148.799 259.1Z" fill="#FF8C64"/>
<path d="M103.099 185.6L102.899 186.1L102.599 186.8C102.399 187.3 102.199 187.8 101.999 188.3C101.599 189.3 101.299 190.4 100.899 191.4C100.199 193.5 99.5992 195.7 99.0992 197.9C98.0992 202.3 97.3992 206.7 97.1992 211.1C97.0992 212.2 97.0992 213.3 97.0992 214.4C97.0992 215.5 97.0992 216.6 97.0992 217.7C97.0992 218.8 97.1992 219.9 97.2992 221C97.3992 222.1 97.4992 223.2 97.6992 224.2C97.7992 225.3 97.9992 226.3 98.1992 227.4C98.3992 228.5 98.5992 229.5 98.8992 230.6C99.1992 231.6 99.4992 232.7 99.7992 233.7C99.9992 234.2 100.099 234.7 100.299 235.2L100.399 235.4C100.299 235.3 100.299 235.2 100.299 235.1C100.199 235 100.199 234.9 100.199 234.9C100.199 234.9 100.199 235 100.399 235.2C100.599 235.4 100.799 235.6 101.099 235.9C101.699 236.4 102.399 237 103.199 237.6C104.799 238.8 106.699 240 108.699 241.1C112.699 243.4 116.999 245.6 121.499 247.6C125.899 249.7 130.499 251.6 135.099 253.5C137.399 254.5 139.699 255.4 141.999 256.3L145.499 257.6L147.199 258.3L148.899 258.9L143.799 274.5L141.899 273.9L139.999 273.3C138.799 272.9 137.499 272.5 136.299 272.1C133.799 271.3 131.399 270.5 128.899 269.7C123.999 268 119.099 266.2 114.199 264.3C109.299 262.3 104.499 260.2 99.4992 257.7C96.9992 256.4 94.5992 255 91.9992 253.3C90.6992 252.4 89.3992 251.5 88.0992 250.3C87.3992 249.7 86.6992 249.1 85.9992 248.3C85.2992 247.6 84.5992 246.7 83.7992 245.6C83.3992 245.1 83.0992 244.5 82.6992 243.8C82.4992 243.4 82.2992 243.1 82.1992 242.7L82.0992 242.4L81.9992 242.3L81.8992 242C81.5992 241.3 81.3992 240.6 81.0992 240C80.5992 238.6 80.0992 237.2 79.6992 235.8C79.2992 234.4 78.8992 233 78.5992 231.6C78.2992 230.2 77.9992 228.8 77.6992 227.3C76.6992 221.6 76.2992 215.8 76.4992 210.1C76.6992 204.4 77.3992 198.7 78.4992 193.2C79.0992 190.4 79.7992 187.7 80.5992 185C80.9992 183.6 81.4992 182.3 81.9992 180.9C82.1992 180.2 82.4992 179.5 82.7992 178.8C82.8992 178.5 83.0992 178.1 83.1992 177.7L83.3992 177.1L83.4992 176.8L83.6992 176.4L103.099 185.6Z" fill="#FF4231"/>
<path d="M93.4996 239.6C93.2996 239.6 93.0996 239.5 92.9996 239.3C92.7996 239 92.8996 238.6 93.1996 238.5C96.5996 236.2 101.3 234.1 101.5 234C101.8 233.9 102.2 234 102.3 234.3C102.4 234.6 102.3 235 102 235.1C102 235.1 97.2996 237.2 93.8996 239.5C93.7996 239.6 93.6996 239.6 93.4996 239.6Z" fill="#B81A2A"/>
<path d="M95.4994 235.6C95.1994 235.6 94.8994 235.4 94.8994 235.1C94.8994 234.8 95.0994 234.5 95.3994 234.4C95.4994 234.4 98.7994 234.1 101.399 234.1C101.699 234.1 101.999 234.4 101.999 234.7C101.999 235 101.699 235.3 101.399 235.3C98.8994 235.3 95.5994 235.6 95.4994 235.6Z" fill="#B81A2A"/>
<path d="M137.199 254.8C137.099 254.8 136.999 254.8 136.899 254.7C115.899 244.9 102.199 235.7 101.599 234.8C101.599 234.7 101.499 234.7 101.499 234.6C101.199 233.3 95.0992 201.4 99.0992 189.9C99.1992 189.6 99.5992 189.4 99.8992 189.5C100.199 189.6 100.399 190 100.299 190.3C96.4992 201.1 102.199 231.6 102.699 234.2C104.099 235.4 117.299 244.3 137.399 253.6C137.699 253.7 137.799 254.1 137.699 254.4C137.599 254.7 137.399 254.8 137.199 254.8Z" fill="#B81A2A"/>
<path d="M98.9992 195.9C98.7992 195.9 98.6992 195.8 98.5992 195.7C98.3992 195.5 98.3992 195.1 98.5992 194.8L101.199 192.1C101.399 191.9 101.799 191.9 102.099 192.1C102.299 192.3 102.299 192.7 102.099 193L99.4992 195.7C99.2992 195.8 99.1992 195.9 98.9992 195.9Z" fill="#B81A2A"/>
<path d="M134.6 272.1C134.5 272.1 134.5 272.1 134.4 272.1C134.1 272 133.9 271.6 134 271.3L139.1 256.1C139.2 255.8 139.6 255.6 139.9 255.7C140.2 255.8 140.4 256.2 140.3 256.5L135.2 271.7C135.1 271.9 134.9 272.1 134.6 272.1Z" fill="#B81A2A"/>
<path d="M144.499 271.4C144.399 271.4 144.399 271.4 144.299 271.4L135.999 268.4C135.699 268.3 135.499 267.9 135.599 267.6C135.699 267.3 136.099 267.1 136.399 267.2L144.699 270.2C144.999 270.3 145.199 270.7 145.099 271C144.999 271.2 144.799 271.4 144.499 271.4Z" fill="#B81A2A"/>
<path d="M143.3 264.7C143.4 265.5 142.9 266.2 142.2 266.3C141.4 266.4 140.7 265.9 140.6 265.2C140.5 264.4 141 263.7 141.7 263.6C142.4 263.5 143.2 264 143.3 264.7Z" fill="#B81A2A"/>
<path d="M141.499 349.1L141.399 403.3C141.399 405.4 139.699 407.2 137.499 407.2L49.2994 407.1C47.1994 407.1 45.3994 405.4 45.3994 403.2L45.4994 349C45.4994 346.9 47.1994 345.1 49.3994 345.1L137.599 345.2C139.799 345.3 141.499 347 141.499 349.1Z" fill="#60181E"/>
<path d="M141.499 378.5V349.1C141.499 347 139.799 345.2 137.599 345.2L49.399 345.1C47.299 345.1 45.499 346.8 45.499 349V378.4L141.499 378.5Z" fill="#893F49"/>
<path d="M107.199 336.6V345.2H102.799V336.8H98.5994H98.3994H95.7994H95.4994H84.2994V345.2H79.8994V336.6C79.8994 334.3 81.7994 332.5 83.9994 332.5H94.4994H95.2994H96.7994H97.0994H103.099C105.299 332.5 107.199 334.4 107.199 336.6Z" fill="#F79C00"/>
<path d="M69.6992 374.2V382.8C69.6992 383.3 69.2992 383.6 68.8992 383.6H64.4992C63.9992 383.6 63.6992 383.2 63.6992 382.8V374.2C63.6992 373.7 64.0992 373.4 64.4992 373.4H68.8992C69.2992 373.3 69.6992 373.7 69.6992 374.2Z" fill="#E07F20"/>
<path d="M69.6996 374.2V378.5H63.5996V374.2C63.5996 373.7 63.9996 373.4 64.3996 373.4H68.7996C69.2996 373.3 69.6996 373.7 69.6996 374.2Z" fill="#F79C00"/>
<path d="M123.499 374.2V382.8C123.499 383.3 123.099 383.6 122.699 383.6H118.299C117.799 383.6 117.499 383.2 117.499 382.8V374.2C117.499 373.7 117.899 373.4 118.299 373.4H122.699C123.099 373.4 123.499 373.7 123.499 374.2Z" fill="#E07F20"/>
<path d="M123.499 374.2V378.5H117.399V374.2C117.399 373.7 117.799 373.4 118.199 373.4H122.599C123.099 373.4 123.499 373.7 123.499 374.2Z" fill="#F79C00"/>
</g>
<defs>
<clipPath id="clip0_782_6950">
<rect width="650.1" height="415.9" fill="white"/>
</clipPath>
</defs>
</svg>
